<svg width="35" height="35" viewBox="0 0 35 35" fill="none" xmlns="http://www.w3.org/2000/svg">
<path d="M8.5306 24.9373C9.77018 23.9894 11.1556 23.242 12.6868 22.6951C14.2181 22.1483 15.8223 21.8748 17.4993 21.8748C19.1764 21.8748 20.7806 22.1483 22.3118 22.6951C23.8431 23.242 25.2285 23.9894 26.4681 24.9373C27.3188 23.9408 27.9811 22.8106 28.4551 21.5467C28.929 20.2828 29.166 18.9339 29.166 17.4998C29.166 14.2672 28.0297 11.5146 25.7572 9.24202C23.4846 6.96946 20.732 5.83317 17.4993 5.83317C14.2667 5.83317 11.5141 6.96946 9.24154 9.24202C6.96897 11.5146 5.83268 14.2672 5.83268 17.4998C5.83268 18.9339 6.06966 20.2828 6.54362 21.5467C7.01758 22.8106 7.6799 23.9408 8.5306 24.9373ZM17.4993 18.9582C16.0653 18.9582 14.8561 18.466 13.8717 17.4816C12.8874 16.4972 12.3952 15.288 12.3952 13.854C12.3952 12.42 12.8874 11.2108 13.8717 10.2264C14.8561 9.24202 16.0653 8.74984 17.4993 8.74984C18.9334 8.74984 20.1426 9.24202 21.127 10.2264C22.1113 11.2108 22.6035 12.42 22.6035 13.854C22.6035 15.288 22.1113 16.4972 21.127 17.4816C20.1426 18.466 18.9334 18.9582 17.4993 18.9582ZM17.4993 32.0832C15.482 32.0832 13.5862 31.7004 11.8118 30.9347C10.0375 30.1691 8.49414 29.13 7.18164 27.8175C5.86914 26.505 4.83008 24.9616 4.06445 23.1873C3.29883 21.413 2.91602 19.5172 2.91602 17.4998C2.91602 15.4825 3.29883 13.5866 4.06445 11.8123C4.83008 10.038 5.86914 8.49463 7.18164 7.18213C8.49414 5.86963 10.0375 4.83057 11.8118 4.06494C13.5862 3.29932 15.482 2.9165 17.4993 2.9165C19.5167 2.9165 21.4125 3.29932 23.1868 4.06494C24.9612 4.83057 26.5046 5.86963 27.8171 7.18213C29.1296 8.49463 30.1686 10.038 30.9342 11.8123C31.6999 13.5866 32.0827 15.4825 32.0827 17.4998C32.0827 19.5172 31.6999 21.413 30.9342 23.1873C30.1686 24.9616 29.1296 26.505 27.8171 27.8175C26.5046 29.13 24.9612 30.1691 23.1868 30.9347C21.4125 31.7004 19.5167 32.0832 17.4993 32.0832Z" fill="#1D1B20"/>
</svg>
