<svg width="314" height="21" viewBox="0 0 314 21" fill="none" xmlns="http://www.w3.org/2000/svg">
<path d="M4.61523 16H1.51953L1.53906 13.7148H4.61523C5.38346 13.7148 6.03125 13.5423 6.55859 13.1973C7.08594 12.8457 7.48307 12.3346 7.75 11.6641C8.02344 10.9935 8.16016 10.1829 8.16016 9.23242V8.53906C8.16016 7.8099 8.08203 7.16862 7.92578 6.61523C7.77604 6.06185 7.55143 5.59635 7.25195 5.21875C6.95247 4.84115 6.58464 4.55794 6.14844 4.36914C5.71224 4.17383 5.21094 4.07617 4.64453 4.07617H1.46094V1.78125H4.64453C5.59505 1.78125 6.46419 1.94401 7.25195 2.26953C8.04622 2.58854 8.73307 3.04753 9.3125 3.64648C9.89193 4.24544 10.3379 4.96159 10.6504 5.79492C10.9694 6.62174 11.1289 7.54297 11.1289 8.55859V9.23242C11.1289 10.2415 10.9694 11.1628 10.6504 11.9961C10.3379 12.8294 9.89193 13.5456 9.3125 14.1445C8.73958 14.737 8.05273 15.196 7.25195 15.5215C6.45768 15.8405 5.57878 16 4.61523 16ZM3.17969 1.78125V16H0.25V1.78125H3.17969ZM17.9453 16.1953C17.125 16.1953 16.3893 16.0651 15.7383 15.8047C15.0872 15.5378 14.5339 15.1699 14.0781 14.7012C13.6289 14.2324 13.2839 13.6888 13.043 13.0703C12.8021 12.4453 12.6816 11.7812 12.6816 11.0781V10.6875C12.6816 9.88672 12.7956 9.1543 13.0234 8.49023C13.2513 7.82617 13.5768 7.25 14 6.76172C14.4297 6.27344 14.9505 5.89909 15.5625 5.63867C16.1745 5.37174 16.8646 5.23828 17.6328 5.23828C18.3815 5.23828 19.0456 5.36198 19.625 5.60938C20.2044 5.85677 20.6895 6.20833 21.0801 6.66406C21.4772 7.11979 21.7767 7.66667 21.9785 8.30469C22.1803 8.9362 22.2812 9.63932 22.2812 10.4141V11.5859H13.8828V9.71094H19.5176V9.49609C19.5176 9.10547 19.446 8.75716 19.3027 8.45117C19.166 8.13867 18.9577 7.89128 18.6777 7.70898C18.3978 7.52669 18.0397 7.43555 17.6035 7.43555C17.2324 7.43555 16.9134 7.51693 16.6465 7.67969C16.3796 7.84245 16.1615 8.07031 15.9922 8.36328C15.8294 8.65625 15.7057 9.0013 15.6211 9.39844C15.543 9.78906 15.5039 10.2188 15.5039 10.6875V11.0781C15.5039 11.5013 15.5625 11.8919 15.6797 12.25C15.8034 12.6081 15.9759 12.9173 16.1973 13.1777C16.4251 13.4382 16.6986 13.64 17.0176 13.7832C17.3431 13.9264 17.7109 13.998 18.1211 13.998C18.6289 13.998 19.1009 13.9004 19.5371 13.7051C19.9798 13.5033 20.3607 13.2005 20.6797 12.7969L22.0469 14.2812C21.8255 14.6003 21.5228 14.9062 21.1387 15.1992C20.7611 15.4922 20.3053 15.7331 19.7715 15.9219C19.2376 16.1042 18.6289 16.1953 17.9453 16.1953ZM29.5957 13.0801C29.5957 12.8783 29.5371 12.696 29.4199 12.5332C29.3027 12.3704 29.0846 12.2207 28.7656 12.084C28.4531 11.9408 28.0007 11.8105 27.4082 11.6934C26.8743 11.5762 26.3763 11.4297 25.9141 11.2539C25.4583 11.0716 25.0612 10.8535 24.7227 10.5996C24.3906 10.3457 24.1302 10.0462 23.9414 9.70117C23.7526 9.34961 23.6582 8.94922 23.6582 8.5C23.6582 8.05729 23.7526 7.64062 23.9414 7.25C24.1367 6.85938 24.4134 6.51432 24.7715 6.21484C25.1361 5.90885 25.5788 5.67122 26.0996 5.50195C26.627 5.32617 27.2194 5.23828 27.877 5.23828C28.7949 5.23828 29.5827 5.38477 30.2402 5.67773C30.9043 5.9707 31.4121 6.37435 31.7637 6.88867C32.1217 7.39648 32.3008 7.97591 32.3008 8.62695H29.4883C29.4883 8.35352 29.4297 8.10938 29.3125 7.89453C29.2018 7.67318 29.026 7.50065 28.7852 7.37695C28.5508 7.24674 28.2448 7.18164 27.8672 7.18164C27.5547 7.18164 27.2845 7.23698 27.0566 7.34766C26.8288 7.45182 26.653 7.59505 26.5293 7.77734C26.4121 7.95312 26.3535 8.14844 26.3535 8.36328C26.3535 8.52604 26.3861 8.67253 26.4512 8.80273C26.5228 8.92643 26.6367 9.04036 26.793 9.14453C26.9492 9.2487 27.151 9.34635 27.3984 9.4375C27.6523 9.52214 27.9648 9.60026 28.3359 9.67188C29.0977 9.82812 29.778 10.0332 30.377 10.2871C30.9759 10.5345 31.4512 10.873 31.8027 11.3027C32.1543 11.7259 32.3301 12.2826 32.3301 12.9727C32.3301 13.4414 32.2259 13.8711 32.0176 14.2617C31.8092 14.6523 31.5098 14.9941 31.1191 15.2871C30.7285 15.5736 30.2598 15.7982 29.7129 15.9609C29.1725 16.1172 28.5638 16.1953 27.8867 16.1953C26.9036 16.1953 26.0703 16.0195 25.3867 15.668C24.7096 15.3164 24.1953 14.8704 23.8438 14.3301C23.4987 13.7832 23.3262 13.2233 23.3262 12.6504H25.9922C26.0052 13.0345 26.1029 13.3438 26.2852 13.5781C26.474 13.8125 26.7116 13.9818 26.998 14.0859C27.291 14.1901 27.6068 14.2422 27.9453 14.2422C28.3099 14.2422 28.6126 14.1934 28.8535 14.0957C29.0944 13.9915 29.2767 13.8548 29.4004 13.6855C29.5306 13.5098 29.5957 13.3079 29.5957 13.0801ZM39.0195 16.1953C38.1992 16.1953 37.4635 16.0651 36.8125 15.8047C36.1615 15.5378 35.6081 15.1699 35.1523 14.7012C34.7031 14.2324 34.3581 13.6888 34.1172 13.0703C33.8763 12.4453 33.7559 11.7812 33.7559 11.0781V10.6875C33.7559 9.88672 33.8698 9.1543 34.0977 8.49023C34.3255 7.82617 34.651 7.25 35.0742 6.76172C35.5039 6.27344 36.0247 5.89909 36.6367 5.63867C37.2487 5.37174 37.9388 5.23828 38.707 5.23828C39.4557 5.23828 40.1198 5.36198 40.6992 5.60938C41.2786 5.85677 41.7637 6.20833 42.1543 6.66406C42.5514 7.11979 42.8509 7.66667 43.0527 8.30469C43.2546 8.9362 43.3555 9.63932 43.3555 10.4141V11.5859H34.957V9.71094H40.5918V9.49609C40.5918 9.10547 40.5202 8.75716 40.377 8.45117C40.2402 8.13867 40.0319 7.89128 39.752 7.70898C39.472 7.52669 39.1139 7.43555 38.6777 7.43555C38.3066 7.43555 37.9876 7.51693 37.7207 7.67969C37.4538 7.84245 37.2357 8.07031 37.0664 8.36328C36.9036 8.65625 36.7799 9.0013 36.6953 9.39844C36.6172 9.78906 36.5781 10.2188 36.5781 10.6875V11.0781C36.5781 11.5013 36.6367 11.8919 36.7539 12.25C36.8776 12.6081 37.0501 12.9173 37.2715 13.1777C37.4993 13.4382 37.7728 13.64 38.0918 13.7832C38.4173 13.9264 38.7852 13.998 39.1953 13.998C39.7031 13.998 40.1751 13.9004 40.6113 13.7051C41.054 13.5033 41.4349 13.2005 41.7539 12.7969L43.1211 14.2812C42.8997 14.6003 42.597 14.9062 42.2129 15.1992C41.8353 15.4922 41.3796 15.7331 40.8457 15.9219C40.3118 16.1042 39.7031 16.1953 39.0195 16.1953ZM47.7109 7.68945V16H44.8984V5.43359H47.5352L47.7109 7.68945ZM47.3008 10.3457H46.5391C46.5391 9.56445 46.64 8.86133 46.8418 8.23633C47.0436 7.60482 47.3268 7.06771 47.6914 6.625C48.056 6.17578 48.4889 5.83398 48.9902 5.59961C49.498 5.35872 50.0645 5.23828 50.6895 5.23828C51.1842 5.23828 51.6367 5.3099 52.0469 5.45312C52.457 5.59635 52.8086 5.82422 53.1016 6.13672C53.401 6.44922 53.6289 6.86263 53.7852 7.37695C53.9479 7.89128 54.0293 8.51953 54.0293 9.26172V16H51.1973V9.25195C51.1973 8.7832 51.1322 8.41862 51.002 8.1582C50.8717 7.89779 50.6797 7.71549 50.4258 7.61133C50.1784 7.50065 49.8724 7.44531 49.5078 7.44531C49.1302 7.44531 48.8014 7.52018 48.5215 7.66992C48.248 7.81966 48.0202 8.02799 47.8379 8.29492C47.6621 8.55534 47.5286 8.86133 47.4375 9.21289C47.3464 9.56445 47.3008 9.94206 47.3008 10.3457ZM59.7617 13.9492L62.1055 5.43359H65.0449L61.4805 16H59.7031L59.7617 13.9492ZM58.1504 5.43359L60.5039 13.959L60.5527 16H58.7656L55.2012 5.43359H58.1504ZM65.6992 10.8242V10.6191C65.6992 9.8444 65.8099 9.13151 66.0312 8.48047C66.2526 7.82292 66.5749 7.25326 66.998 6.77148C67.4212 6.28971 67.9421 5.91536 68.5605 5.64844C69.179 5.375 69.8887 5.23828 70.6895 5.23828C71.4902 5.23828 72.2031 5.375 72.8281 5.64844C73.4531 5.91536 73.9772 6.28971 74.4004 6.77148C74.8301 7.25326 75.1556 7.82292 75.377 8.48047C75.5983 9.13151 75.709 9.8444 75.709 10.6191V10.8242C75.709 11.5924 75.5983 12.3053 75.377 12.9629C75.1556 13.6139 74.8301 14.1836 74.4004 14.6719C73.9772 15.1536 73.4564 15.528 72.8379 15.7949C72.2194 16.0618 71.5098 16.1953 70.709 16.1953C69.9082 16.1953 69.1953 16.0618 68.5703 15.7949C67.9518 15.528 67.4277 15.1536 66.998 14.6719C66.5749 14.1836 66.2526 13.6139 66.0312 12.9629C65.8099 12.3053 65.6992 11.5924 65.6992 10.8242ZM68.5117 10.6191V10.8242C68.5117 11.2669 68.5508 11.6803 68.6289 12.0645C68.707 12.4486 68.8307 12.7871 69 13.0801C69.1758 13.3665 69.4036 13.5911 69.6836 13.7539C69.9635 13.9167 70.3053 13.998 70.709 13.998C71.0996 13.998 71.4349 13.9167 71.7148 13.7539C71.9948 13.5911 72.2194 13.3665 72.3887 13.0801C72.5579 12.7871 72.6816 12.4486 72.7598 12.0645C72.8444 11.6803 72.8867 11.2669 72.8867 10.8242V10.6191C72.8867 10.1895 72.8444 9.78581 72.7598 9.4082C72.6816 9.02409 72.5547 8.68555 72.3789 8.39258C72.2096 8.0931 71.985 7.85872 71.7051 7.68945C71.4251 7.52018 71.0866 7.43555 70.6895 7.43555C70.2923 7.43555 69.9538 7.52018 69.6738 7.68945C69.4004 7.85872 69.1758 8.0931 69 8.39258C68.8307 8.68555 68.707 9.02409 68.6289 9.4082C68.5508 9.78581 68.5117 10.1895 68.5117 10.6191ZM80.4062 1V16H77.584V1H80.4062ZM86.3242 13.9492L88.668 5.43359H91.6074L88.043 16H86.2656L86.3242 13.9492ZM84.7129 5.43359L87.0664 13.959L87.1152 16H85.3281L81.7637 5.43359H84.7129ZM97.5938 16.1953C96.7734 16.1953 96.0378 16.0651 95.3867 15.8047C94.7357 15.5378 94.1823 15.1699 93.7266 14.7012C93.2773 14.2324 92.9323 13.6888 92.6914 13.0703C92.4505 12.4453 92.3301 11.7812 92.3301 11.0781V10.6875C92.3301 9.88672 92.444 9.1543 92.6719 8.49023C92.8997 7.82617 93.2253 7.25 93.6484 6.76172C94.0781 6.27344 94.599 5.89909 95.2109 5.63867C95.8229 5.37174 96.513 5.23828 97.2812 5.23828C98.0299 5.23828 98.694 5.36198 99.2734 5.60938C99.8529 5.85677 100.338 6.20833 100.729 6.66406C101.126 7.11979 101.425 7.66667 101.627 8.30469C101.829 8.9362 101.93 9.63932 101.93 10.4141V11.5859H93.5312V9.71094H99.166V9.49609C99.166 9.10547 99.0944 8.75716 98.9512 8.45117C98.8145 8.13867 98.6061 7.89128 98.3262 7.70898C98.0462 7.52669 97.6882 7.43555 97.252 7.43555C96.8809 7.43555 96.5618 7.51693 96.2949 7.67969C96.028 7.84245 95.8099 8.07031 95.6406 8.36328C95.4779 8.65625 95.3542 9.0013 95.2695 9.39844C95.1914 9.78906 95.1523 10.2188 95.1523 10.6875V11.0781C95.1523 11.5013 95.2109 11.8919 95.3281 12.25C95.4518 12.6081 95.6243 12.9173 95.8457 13.1777C96.0736 13.4382 96.347 13.64 96.666 13.7832C96.9915 13.9264 97.3594 13.998 97.7695 13.998C98.2773 13.998 98.7493 13.9004 99.1855 13.7051C99.6283 13.5033 100.009 13.2005 100.328 12.7969L101.695 14.2812C101.474 14.6003 101.171 14.9062 100.787 15.1992C100.41 15.4922 99.9538 15.7331 99.4199 15.9219C98.8861 16.1042 98.2773 16.1953 97.5938 16.1953ZM109.771 13.6953V1H112.604V16H110.055L109.771 13.6953ZM103.092 10.8438V10.6387C103.092 9.83138 103.183 9.09896 103.365 8.44141C103.548 7.77734 103.814 7.20768 104.166 6.73242C104.518 6.25716 104.951 5.88932 105.465 5.62891C105.979 5.36849 106.565 5.23828 107.223 5.23828C107.841 5.23828 108.382 5.36849 108.844 5.62891C109.312 5.88932 109.71 6.26042 110.035 6.74219C110.367 7.21745 110.634 7.7806 110.836 8.43164C111.038 9.07617 111.184 9.78255 111.275 10.5508V11C111.184 11.7357 111.038 12.4193 110.836 13.0508C110.634 13.6823 110.367 14.2357 110.035 14.7109C109.71 15.1797 109.312 15.5443 108.844 15.8047C108.375 16.0651 107.828 16.1953 107.203 16.1953C106.546 16.1953 105.96 16.0618 105.445 15.7949C104.938 15.528 104.508 15.1536 104.156 14.6719C103.811 14.1901 103.548 13.6237 103.365 12.9727C103.183 12.3216 103.092 11.612 103.092 10.8438ZM105.904 10.6387V10.8438C105.904 11.2799 105.937 11.6868 106.002 12.0645C106.074 12.4421 106.188 12.7773 106.344 13.0703C106.507 13.3568 106.715 13.5814 106.969 13.7441C107.229 13.9004 107.545 13.9785 107.916 13.9785C108.398 13.9785 108.795 13.8711 109.107 13.6562C109.42 13.4349 109.658 13.1322 109.82 12.748C109.99 12.3639 110.087 11.9212 110.113 11.4199V10.1406C110.094 9.73047 110.035 9.36263 109.938 9.03711C109.846 8.70508 109.71 8.42188 109.527 8.1875C109.352 7.95312 109.13 7.77083 108.863 7.64062C108.603 7.51042 108.294 7.44531 107.936 7.44531C107.571 7.44531 107.258 7.52995 106.998 7.69922C106.738 7.86198 106.526 8.08659 106.363 8.37305C106.207 8.65951 106.09 8.99805 106.012 9.38867C105.94 9.77279 105.904 10.1895 105.904 10.6387ZM114.352 10.8242V10.6191C114.352 9.8444 114.462 9.13151 114.684 8.48047C114.905 7.82292 115.227 7.25326 115.65 6.77148C116.074 6.28971 116.594 5.91536 117.213 5.64844C117.831 5.375 118.541 5.23828 119.342 5.23828C120.143 5.23828 120.855 5.375 121.48 5.64844C122.105 5.91536 122.63 6.28971 123.053 6.77148C123.482 7.25326 123.808 7.82292 124.029 8.48047C124.251 9.13151 124.361 9.8444 124.361 10.6191V10.8242C124.361 11.5924 124.251 12.3053 124.029 12.9629C123.808 13.6139 123.482 14.1836 123.053 14.6719C122.63 15.1536 122.109 15.528 121.49 15.7949C120.872 16.0618 120.162 16.1953 119.361 16.1953C118.561 16.1953 117.848 16.0618 117.223 15.7949C116.604 15.528 116.08 15.1536 115.65 14.6719C115.227 14.1836 114.905 13.6139 114.684 12.9629C114.462 12.3053 114.352 11.5924 114.352 10.8242ZM117.164 10.6191V10.8242C117.164 11.2669 117.203 11.6803 117.281 12.0645C117.359 12.4486 117.483 12.7871 117.652 13.0801C117.828 13.3665 118.056 13.5911 118.336 13.7539C118.616 13.9167 118.958 13.998 119.361 13.998C119.752 13.998 120.087 13.9167 120.367 13.7539C120.647 13.5911 120.872 13.3665 121.041 13.0801C121.21 12.7871 121.334 12.4486 121.412 12.0645C121.497 11.6803 121.539 11.2669 121.539 10.8242V10.6191C121.539 10.1895 121.497 9.78581 121.412 9.4082C121.334 9.02409 121.207 8.68555 121.031 8.39258C120.862 8.0931 120.637 7.85872 120.357 7.68945C120.077 7.52018 119.739 7.43555 119.342 7.43555C118.945 7.43555 118.606 7.52018 118.326 7.68945C118.053 7.85872 117.828 8.0931 117.652 8.39258C117.483 8.68555 117.359 9.02409 117.281 9.4082C117.203 9.78581 117.164 10.1895 117.164 10.6191ZM128.902 7.73828V16H126.09V5.43359H128.736L128.902 7.73828ZM132.086 5.36523L132.037 7.97266C131.9 7.95312 131.734 7.93685 131.539 7.92383C131.35 7.9043 131.178 7.89453 131.021 7.89453C130.624 7.89453 130.279 7.94661 129.986 8.05078C129.7 8.14844 129.459 8.29492 129.264 8.49023C129.075 8.68555 128.932 8.92318 128.834 9.20312C128.743 9.48307 128.691 9.80208 128.678 10.1602L128.111 9.98438C128.111 9.30078 128.18 8.67253 128.316 8.09961C128.453 7.52018 128.652 7.01562 128.912 6.58594C129.179 6.15625 129.505 5.82422 129.889 5.58984C130.273 5.35547 130.712 5.23828 131.207 5.23828C131.363 5.23828 131.523 5.2513 131.686 5.27734C131.848 5.29688 131.982 5.32617 132.086 5.36523ZM133.541 10.4336V10.2188C133.541 8.84505 133.684 7.59831 133.971 6.47852C134.264 5.35872 134.648 4.37565 135.123 3.5293C135.605 2.67643 136.129 1.97005 136.695 1.41016C137.262 0.85026 137.825 0.446615 138.385 0.199219L138.922 1.68359C138.551 1.95703 138.186 2.33464 137.828 2.81641C137.47 3.29167 137.145 3.8776 136.852 4.57422C136.565 5.26432 136.334 6.07812 136.158 7.01562C135.982 7.94661 135.895 9.00781 135.895 10.1992V10.4531C135.895 11.6445 135.982 12.709 136.158 13.6465C136.334 14.5775 136.565 15.3913 136.852 16.0879C137.145 16.791 137.47 17.3835 137.828 17.8652C138.186 18.347 138.551 18.7279 138.922 19.0078L138.385 20.4531C137.825 20.2057 137.262 19.8021 136.695 19.2422C136.129 18.6888 135.605 17.9857 135.123 17.1328C134.648 16.2865 134.264 15.3034 133.971 14.1836C133.684 13.0573 133.541 11.8073 133.541 10.4336ZM146.109 13.6172V8.91016C146.109 8.57161 146.054 8.2819 145.943 8.04102C145.833 7.79362 145.66 7.60156 145.426 7.46484C145.198 7.32812 144.902 7.25977 144.537 7.25977C144.225 7.25977 143.954 7.3151 143.727 7.42578C143.499 7.52995 143.323 7.68294 143.199 7.88477C143.076 8.08008 143.014 8.3112 143.014 8.57812H140.201C140.201 8.12891 140.305 7.70247 140.514 7.29883C140.722 6.89518 141.025 6.54036 141.422 6.23438C141.819 5.92188 142.291 5.67773 142.838 5.50195C143.391 5.32617 144.01 5.23828 144.693 5.23828C145.514 5.23828 146.243 5.375 146.881 5.64844C147.519 5.92188 148.02 6.33203 148.385 6.87891C148.756 7.42578 148.941 8.10938 148.941 8.92969V13.4512C148.941 14.0306 148.977 14.5059 149.049 14.877C149.12 15.2415 149.225 15.5605 149.361 15.834V16H146.52C146.383 15.7135 146.279 15.3555 146.207 14.9258C146.142 14.4896 146.109 14.0534 146.109 13.6172ZM146.48 9.56445L146.5 11.1562H144.928C144.557 11.1562 144.234 11.1986 143.961 11.2832C143.688 11.3678 143.463 11.4883 143.287 11.6445C143.111 11.7943 142.981 11.9701 142.896 12.1719C142.818 12.3737 142.779 12.5951 142.779 12.8359C142.779 13.0768 142.835 13.2949 142.945 13.4902C143.056 13.679 143.215 13.8288 143.424 13.9395C143.632 14.0436 143.876 14.0957 144.156 14.0957C144.579 14.0957 144.947 14.0111 145.26 13.8418C145.572 13.6725 145.813 13.4642 145.982 13.2168C146.158 12.9694 146.249 12.735 146.256 12.5137L146.998 13.7051C146.894 13.972 146.751 14.2487 146.568 14.5352C146.393 14.8216 146.168 15.0918 145.895 15.3457C145.621 15.5931 145.292 15.7982 144.908 15.9609C144.524 16.1172 144.068 16.1953 143.541 16.1953C142.87 16.1953 142.262 16.0618 141.715 15.7949C141.174 15.5215 140.745 15.1471 140.426 14.6719C140.113 14.1901 139.957 13.6432 139.957 13.0312C139.957 12.4779 140.061 11.9863 140.27 11.5566C140.478 11.127 140.784 10.7656 141.188 10.4727C141.598 10.1732 142.109 9.94857 142.721 9.79883C143.333 9.64258 144.042 9.56445 144.85 9.56445H146.48ZM155.943 10.2188V10.4336C155.943 11.7617 155.794 12.9857 155.494 14.1055C155.195 15.2188 154.798 16.2051 154.303 17.0645C153.814 17.9303 153.277 18.6497 152.691 19.2227C152.112 19.7956 151.533 20.2057 150.953 20.4531L150.406 19.0078C150.777 18.7344 151.139 18.3568 151.49 17.875C151.848 17.3932 152.174 16.8008 152.467 16.0977C152.76 15.401 152.991 14.584 153.16 13.6465C153.336 12.709 153.424 11.6445 153.424 10.4531V10.1992C153.424 9.00781 153.336 7.94336 153.16 7.00586C152.984 6.06836 152.747 5.2513 152.447 4.55469C152.154 3.85156 151.829 3.26237 151.471 2.78711C151.119 2.30534 150.764 1.92773 150.406 1.6543L150.953 0.199219C151.533 0.446615 152.112 0.860026 152.691 1.43945C153.277 2.01237 153.814 2.72852 154.303 3.58789C154.798 4.44727 155.195 5.43685 155.494 6.55664C155.794 7.66992 155.943 8.89062 155.943 10.2188ZM166.227 1.78125V16H163.297V1.78125H166.227ZM171.891 7.85547V10.1406H165.426V7.85547H171.891ZM172.574 1.78125V4.07617H165.426V1.78125H172.574ZM180.133 13.4707V5.43359H182.945V16H180.299L180.133 13.4707ZM180.445 11.3027L181.275 11.2832C181.275 11.9863 181.194 12.6406 181.031 13.2461C180.868 13.8451 180.624 14.3659 180.299 14.8086C179.973 15.2448 179.563 15.5866 179.068 15.834C178.574 16.0749 177.991 16.1953 177.32 16.1953C176.806 16.1953 176.331 16.1237 175.895 15.9805C175.465 15.8307 175.094 15.5996 174.781 15.2871C174.475 14.9681 174.234 14.5612 174.059 14.0664C173.889 13.5651 173.805 12.9629 173.805 12.2598V5.43359H176.617V12.2793C176.617 12.5918 176.653 12.8555 176.725 13.0703C176.803 13.2852 176.91 13.4609 177.047 13.5977C177.184 13.7344 177.343 13.832 177.525 13.8906C177.714 13.9492 177.923 13.9785 178.15 13.9785C178.73 13.9785 179.186 13.8613 179.518 13.627C179.856 13.3926 180.094 13.0736 180.23 12.6699C180.374 12.2598 180.445 11.804 180.445 11.3027ZM188.062 1V16H185.24V1H188.062ZM193.355 1V16H190.533V1H193.355ZM208.238 12.2793C208.238 12.0254 208.199 11.7975 208.121 11.5957C208.049 11.3874 207.913 11.1986 207.711 11.0293C207.509 10.8535 207.226 10.681 206.861 10.5117C206.497 10.3424 206.025 10.1667 205.445 9.98438C204.801 9.77604 204.189 9.54167 203.609 9.28125C203.036 9.02083 202.529 8.7181 202.086 8.37305C201.65 8.02148 201.305 7.61458 201.051 7.15234C200.803 6.6901 200.68 6.15299 200.68 5.54102C200.68 4.94857 200.81 4.41146 201.07 3.92969C201.331 3.44141 201.695 3.02474 202.164 2.67969C202.633 2.32812 203.186 2.05794 203.824 1.86914C204.469 1.68034 205.175 1.58594 205.943 1.58594C206.992 1.58594 207.906 1.77474 208.688 2.15234C209.469 2.52995 210.074 3.04753 210.504 3.70508C210.94 4.36263 211.158 5.11458 211.158 5.96094H208.248C208.248 5.54427 208.16 5.17969 207.984 4.86719C207.815 4.54818 207.555 4.29753 207.203 4.11523C206.858 3.93294 206.422 3.8418 205.895 3.8418C205.387 3.8418 204.964 3.91992 204.625 4.07617C204.286 4.22591 204.033 4.43099 203.863 4.69141C203.694 4.94531 203.609 5.23177 203.609 5.55078C203.609 5.79167 203.668 6.00977 203.785 6.20508C203.909 6.40039 204.091 6.58268 204.332 6.75195C204.573 6.92122 204.869 7.08073 205.221 7.23047C205.572 7.38021 205.979 7.52669 206.441 7.66992C207.216 7.9043 207.896 8.16797 208.482 8.46094C209.075 8.75391 209.57 9.08268 209.967 9.44727C210.364 9.81185 210.663 10.2253 210.865 10.6875C211.067 11.1497 211.168 11.6738 211.168 12.2598C211.168 12.8783 211.048 13.4316 210.807 13.9199C210.566 14.4082 210.217 14.8216 209.762 15.1602C209.306 15.4987 208.762 15.7559 208.131 15.9316C207.499 16.1074 206.793 16.1953 206.012 16.1953C205.309 16.1953 204.615 16.1042 203.932 15.9219C203.248 15.7331 202.626 15.4499 202.066 15.0723C201.513 14.6947 201.07 14.2129 200.738 13.627C200.406 13.041 200.24 12.3477 200.24 11.5469H203.18C203.18 11.9896 203.248 12.3639 203.385 12.6699C203.521 12.9759 203.714 13.2233 203.961 13.4121C204.215 13.6009 204.514 13.7376 204.859 13.8223C205.211 13.9069 205.595 13.9492 206.012 13.9492C206.52 13.9492 206.936 13.8776 207.262 13.7344C207.594 13.5911 207.838 13.3926 207.994 13.1387C208.157 12.8848 208.238 12.5983 208.238 12.2793ZM218.16 5.43359V7.42578H212.008V5.43359H218.16ZM213.531 2.82617H216.344V12.8164C216.344 13.1224 216.383 13.3568 216.461 13.5195C216.546 13.6823 216.669 13.7962 216.832 13.8613C216.995 13.9199 217.2 13.9492 217.447 13.9492C217.623 13.9492 217.779 13.9427 217.916 13.9297C218.059 13.9102 218.18 13.8906 218.277 13.8711L218.287 15.9414C218.046 16.0195 217.786 16.0814 217.506 16.127C217.226 16.1725 216.917 16.1953 216.578 16.1953C215.96 16.1953 215.419 16.0944 214.957 15.8926C214.501 15.6842 214.15 15.3522 213.902 14.8965C213.655 14.4408 213.531 13.8418 213.531 13.0996V2.82617ZM225.465 13.6172V8.91016C225.465 8.57161 225.41 8.2819 225.299 8.04102C225.188 7.79362 225.016 7.60156 224.781 7.46484C224.553 7.32812 224.257 7.25977 223.893 7.25977C223.58 7.25977 223.31 7.3151 223.082 7.42578C222.854 7.52995 222.678 7.68294 222.555 7.88477C222.431 8.08008 222.369 8.3112 222.369 8.57812H219.557C219.557 8.12891 219.661 7.70247 219.869 7.29883C220.077 6.89518 220.38 6.54036 220.777 6.23438C221.174 5.92188 221.646 5.67773 222.193 5.50195C222.747 5.32617 223.365 5.23828 224.049 5.23828C224.869 5.23828 225.598 5.375 226.236 5.64844C226.874 5.92188 227.376 6.33203 227.74 6.87891C228.111 7.42578 228.297 8.10938 228.297 8.92969V13.4512C228.297 14.0306 228.333 14.5059 228.404 14.877C228.476 15.2415 228.58 15.5605 228.717 15.834V16H225.875C225.738 15.7135 225.634 15.3555 225.562 14.9258C225.497 14.4896 225.465 14.0534 225.465 13.6172ZM225.836 9.56445L225.855 11.1562H224.283C223.912 11.1562 223.59 11.1986 223.316 11.2832C223.043 11.3678 222.818 11.4883 222.643 11.6445C222.467 11.7943 222.337 11.9701 222.252 12.1719C222.174 12.3737 222.135 12.5951 222.135 12.8359C222.135 13.0768 222.19 13.2949 222.301 13.4902C222.411 13.679 222.571 13.8288 222.779 13.9395C222.988 14.0436 223.232 14.0957 223.512 14.0957C223.935 14.0957 224.303 14.0111 224.615 13.8418C224.928 13.6725 225.169 13.4642 225.338 13.2168C225.514 12.9694 225.605 12.735 225.611 12.5137L226.354 13.7051C226.249 13.972 226.106 14.2487 225.924 14.5352C225.748 14.8216 225.523 15.0918 225.25 15.3457C224.977 15.5931 224.648 15.7982 224.264 15.9609C223.88 16.1172 223.424 16.1953 222.896 16.1953C222.226 16.1953 221.617 16.0618 221.07 15.7949C220.53 15.5215 220.1 15.1471 219.781 14.6719C219.469 14.1901 219.312 13.6432 219.312 13.0312C219.312 12.4779 219.417 11.9863 219.625 11.5566C219.833 11.127 220.139 10.7656 220.543 10.4727C220.953 10.1732 221.464 9.94857 222.076 9.79883C222.688 9.64258 223.398 9.56445 224.205 9.56445H225.836ZM234.83 13.998C235.175 13.998 235.481 13.9329 235.748 13.8027C236.015 13.666 236.223 13.4772 236.373 13.2363C236.529 12.9889 236.611 12.6992 236.617 12.3672H239.264C239.257 13.1094 239.059 13.7702 238.668 14.3496C238.277 14.9225 237.753 15.375 237.096 15.707C236.438 16.0326 235.702 16.1953 234.889 16.1953C234.068 16.1953 233.352 16.0586 232.74 15.7852C232.135 15.5117 231.63 15.1341 231.227 14.6523C230.823 14.1641 230.52 13.5977 230.318 12.9531C230.117 12.3021 230.016 11.6055 230.016 10.8633V10.5801C230.016 9.83138 230.117 9.13477 230.318 8.49023C230.52 7.83919 230.823 7.27279 231.227 6.79102C231.63 6.30273 232.135 5.92188 232.74 5.64844C233.346 5.375 234.055 5.23828 234.869 5.23828C235.735 5.23828 236.493 5.4043 237.145 5.73633C237.802 6.06836 238.316 6.54362 238.688 7.16211C239.065 7.77409 239.257 8.5 239.264 9.33984H236.617C236.611 8.98828 236.536 8.66927 236.393 8.38281C236.256 8.09635 236.054 7.86849 235.787 7.69922C235.527 7.52344 235.204 7.43555 234.82 7.43555C234.41 7.43555 234.075 7.52344 233.814 7.69922C233.554 7.86849 233.352 8.10286 233.209 8.40234C233.066 8.69531 232.965 9.0306 232.906 9.4082C232.854 9.7793 232.828 10.1699 232.828 10.5801V10.8633C232.828 11.2734 232.854 11.6673 232.906 12.0449C232.958 12.4225 233.056 12.7578 233.199 13.0508C233.349 13.3438 233.554 13.5749 233.814 13.7441C234.075 13.9134 234.413 13.998 234.83 13.998ZM243.707 0.990234V16H240.895V0.990234H243.707ZM250.367 5.43359L245.777 10.668L243.316 13.1582L242.291 11.127L244.244 8.64648L246.988 5.43359H250.367ZM247.447 16L244.322 11.1172L246.266 9.41797L250.689 16H247.447ZM264.137 12.2793C264.137 12.0254 264.098 11.7975 264.02 11.5957C263.948 11.3874 263.811 11.1986 263.609 11.0293C263.408 10.8535 263.124 10.681 262.76 10.5117C262.395 10.3424 261.923 10.1667 261.344 9.98438C260.699 9.77604 260.087 9.54167 259.508 9.28125C258.935 9.02083 258.427 8.7181 257.984 8.37305C257.548 8.02148 257.203 7.61458 256.949 7.15234C256.702 6.6901 256.578 6.15299 256.578 5.54102C256.578 4.94857 256.708 4.41146 256.969 3.92969C257.229 3.44141 257.594 3.02474 258.062 2.67969C258.531 2.32812 259.085 2.05794 259.723 1.86914C260.367 1.68034 261.074 1.58594 261.842 1.58594C262.89 1.58594 263.805 1.77474 264.586 2.15234C265.367 2.52995 265.973 3.04753 266.402 3.70508C266.839 4.36263 267.057 5.11458 267.057 5.96094H264.146C264.146 5.54427 264.059 5.17969 263.883 4.86719C263.714 4.54818 263.453 4.29753 263.102 4.11523C262.757 3.93294 262.32 3.8418 261.793 3.8418C261.285 3.8418 260.862 3.91992 260.523 4.07617C260.185 4.22591 259.931 4.43099 259.762 4.69141C259.592 4.94531 259.508 5.23177 259.508 5.55078C259.508 5.79167 259.566 6.00977 259.684 6.20508C259.807 6.40039 259.99 6.58268 260.23 6.75195C260.471 6.92122 260.768 7.08073 261.119 7.23047C261.471 7.38021 261.878 7.52669 262.34 7.66992C263.115 7.9043 263.795 8.16797 264.381 8.46094C264.973 8.75391 265.468 9.08268 265.865 9.44727C266.262 9.81185 266.562 10.2253 266.764 10.6875C266.965 11.1497 267.066 11.6738 267.066 12.2598C267.066 12.8783 266.946 13.4316 266.705 13.9199C266.464 14.4082 266.116 14.8216 265.66 15.1602C265.204 15.4987 264.661 15.7559 264.029 15.9316C263.398 16.1074 262.691 16.1953 261.91 16.1953C261.207 16.1953 260.514 16.1042 259.83 15.9219C259.146 15.7331 258.525 15.4499 257.965 15.0723C257.411 14.6947 256.969 14.2129 256.637 13.627C256.305 13.041 256.139 12.3477 256.139 11.5469H259.078C259.078 11.9896 259.146 12.3639 259.283 12.6699C259.42 12.9759 259.612 13.2233 259.859 13.4121C260.113 13.6009 260.413 13.7376 260.758 13.8223C261.109 13.9069 261.493 13.9492 261.91 13.9492C262.418 13.9492 262.835 13.8776 263.16 13.7344C263.492 13.5911 263.736 13.3926 263.893 13.1387C264.055 12.8848 264.137 12.5983 264.137 12.2793ZM273.746 16.1953C272.926 16.1953 272.19 16.0651 271.539 15.8047C270.888 15.5378 270.335 15.1699 269.879 14.7012C269.43 14.2324 269.085 13.6888 268.844 13.0703C268.603 12.4453 268.482 11.7812 268.482 11.0781V10.6875C268.482 9.88672 268.596 9.1543 268.824 8.49023C269.052 7.82617 269.378 7.25 269.801 6.76172C270.23 6.27344 270.751 5.89909 271.363 5.63867C271.975 5.37174 272.665 5.23828 273.434 5.23828C274.182 5.23828 274.846 5.36198 275.426 5.60938C276.005 5.85677 276.49 6.20833 276.881 6.66406C277.278 7.11979 277.577 7.66667 277.779 8.30469C277.981 8.9362 278.082 9.63932 278.082 10.4141V11.5859H269.684V9.71094H275.318V9.49609C275.318 9.10547 275.247 8.75716 275.104 8.45117C274.967 8.13867 274.758 7.89128 274.479 7.70898C274.199 7.52669 273.84 7.43555 273.404 7.43555C273.033 7.43555 272.714 7.51693 272.447 7.67969C272.18 7.84245 271.962 8.07031 271.793 8.36328C271.63 8.65625 271.507 9.0013 271.422 9.39844C271.344 9.78906 271.305 10.2188 271.305 10.6875V11.0781C271.305 11.5013 271.363 11.8919 271.48 12.25C271.604 12.6081 271.777 12.9173 271.998 13.1777C272.226 13.4382 272.499 13.64 272.818 13.7832C273.144 13.9264 273.512 13.998 273.922 13.998C274.43 13.998 274.902 13.9004 275.338 13.7051C275.781 13.5033 276.161 13.2005 276.48 12.7969L277.848 14.2812C277.626 14.6003 277.324 14.9062 276.939 15.1992C276.562 15.4922 276.106 15.7331 275.572 15.9219C275.038 16.1042 274.43 16.1953 273.746 16.1953ZM273.922 0.990234L276.871 3.70508V3.82227H274.635L273.102 2.39648L271.588 3.82227H269.391V3.67578L272.291 0.990234H273.922ZM282.438 7.68945V16H279.625V5.43359H282.262L282.438 7.68945ZM282.027 10.3457H281.266C281.266 9.56445 281.367 8.86133 281.568 8.23633C281.77 7.60482 282.053 7.06771 282.418 6.625C282.783 6.17578 283.215 5.83398 283.717 5.59961C284.225 5.35872 284.791 5.23828 285.416 5.23828C285.911 5.23828 286.363 5.3099 286.773 5.45312C287.184 5.59635 287.535 5.82422 287.828 6.13672C288.128 6.44922 288.355 6.86263 288.512 7.37695C288.674 7.89128 288.756 8.51953 288.756 9.26172V16H285.924V9.25195C285.924 8.7832 285.859 8.41862 285.729 8.1582C285.598 7.89779 285.406 7.71549 285.152 7.61133C284.905 7.50065 284.599 7.44531 284.234 7.44531C283.857 7.44531 283.528 7.52018 283.248 7.66992C282.975 7.81966 282.747 8.02799 282.564 8.29492C282.389 8.55534 282.255 8.86133 282.164 9.21289C282.073 9.56445 282.027 9.94206 282.027 10.3457ZM293.863 5.43359V16H291.041V5.43359H293.863ZM290.865 2.67969C290.865 2.26953 291.008 1.93099 291.295 1.66406C291.581 1.39714 291.965 1.26367 292.447 1.26367C292.923 1.26367 293.303 1.39714 293.59 1.66406C293.883 1.93099 294.029 2.26953 294.029 2.67969C294.029 3.08984 293.883 3.42839 293.59 3.69531C293.303 3.96224 292.923 4.0957 292.447 4.0957C291.965 4.0957 291.581 3.96224 291.295 3.69531C291.008 3.42839 290.865 3.08984 290.865 2.67969ZM295.738 10.8242V10.6191C295.738 9.8444 295.849 9.13151 296.07 8.48047C296.292 7.82292 296.614 7.25326 297.037 6.77148C297.46 6.28971 297.981 5.91536 298.6 5.64844C299.218 5.375 299.928 5.23828 300.729 5.23828C301.529 5.23828 302.242 5.375 302.867 5.64844C303.492 5.91536 304.016 6.28971 304.439 6.77148C304.869 7.25326 305.195 7.82292 305.416 8.48047C305.637 9.13151 305.748 9.8444 305.748 10.6191V10.8242C305.748 11.5924 305.637 12.3053 305.416 12.9629C305.195 13.6139 304.869 14.1836 304.439 14.6719C304.016 15.1536 303.495 15.528 302.877 15.7949C302.258 16.0618 301.549 16.1953 300.748 16.1953C299.947 16.1953 299.234 16.0618 298.609 15.7949C297.991 15.528 297.467 15.1536 297.037 14.6719C296.614 14.1836 296.292 13.6139 296.07 12.9629C295.849 12.3053 295.738 11.5924 295.738 10.8242ZM298.551 10.6191V10.8242C298.551 11.2669 298.59 11.6803 298.668 12.0645C298.746 12.4486 298.87 12.7871 299.039 13.0801C299.215 13.3665 299.443 13.5911 299.723 13.7539C300.003 13.9167 300.344 13.998 300.748 13.998C301.139 13.998 301.474 13.9167 301.754 13.7539C302.034 13.5911 302.258 13.3665 302.428 13.0801C302.597 12.7871 302.721 12.4486 302.799 12.0645C302.883 11.6803 302.926 11.2669 302.926 10.8242V10.6191C302.926 10.1895 302.883 9.78581 302.799 9.4082C302.721 9.02409 302.594 8.68555 302.418 8.39258C302.249 8.0931 302.024 7.85872 301.744 7.68945C301.464 7.52018 301.126 7.43555 300.729 7.43555C300.331 7.43555 299.993 7.52018 299.713 7.68945C299.439 7.85872 299.215 8.0931 299.039 8.39258C298.87 8.68555 298.746 9.02409 298.668 9.4082C298.59 9.78581 298.551 10.1895 298.551 10.6191ZM310.289 7.73828V16H307.477V5.43359H310.123L310.289 7.73828ZM313.473 5.36523L313.424 7.97266C313.287 7.95312 313.121 7.93685 312.926 7.92383C312.737 7.9043 312.564 7.89453 312.408 7.89453C312.011 7.89453 311.666 7.94661 311.373 8.05078C311.087 8.14844 310.846 8.29492 310.65 8.49023C310.462 8.68555 310.318 8.92318 310.221 9.20312C310.13 9.48307 310.077 9.80208 310.064 10.1602L309.498 9.98438C309.498 9.30078 309.566 8.67253 309.703 8.09961C309.84 7.52018 310.038 7.01562 310.299 6.58594C310.566 6.15625 310.891 5.82422 311.275 5.58984C311.66 5.35547 312.099 5.23828 312.594 5.23828C312.75 5.23828 312.91 5.2513 313.072 5.27734C313.235 5.29688 313.368 5.32617 313.473 5.36523Z" fill="black"/>
</svg>
