<svg width="218" height="32" viewBox="0 0 218 32" fill="none" xmlns="http://www.w3.org/2000/svg">
<path d="M21.3333 2.6665V7.99984M10.6667 2.6665V7.99984M4 13.3332H28M6.66667 5.33317H25.3333C26.8061 5.33317 28 6.52708 28 7.99984V26.6665C28 28.1393 26.8061 29.3332 25.3333 29.3332H6.66667C5.19391 29.3332 4 28.1393 4 26.6665V7.99984C4 6.52708 5.19391 5.33317 6.66667 5.33317Z" stroke="#1E1E1E" stroke-width="3" stroke-linecap="round" stroke-linejoin="round"/>
<path d="M114.333 28V6.66667C114.333 5.95942 114.052 5.28115 113.552 4.78105C113.052 4.28095 112.373 4 111.666 4H106.333C105.625 4 104.947 4.28095 104.447 4.78105C103.947 5.28115 103.666 5.95942 103.666 6.66667V28M98.3327 9.33333H119.666C121.139 9.33333 122.333 10.5272 122.333 12V25.3333C122.333 26.8061 121.139 28 119.666 28H98.3327C96.8599 28 95.666 26.8061 95.666 25.3333V12C95.666 10.5272 96.8599 9.33333 98.3327 9.33333Z" stroke="#1E1E1E" stroke-width="3" stroke-linecap="round" stroke-linejoin="round"/>
<g clip-path="url(#clip0_38_488)">
<path d="M214.001 10.6667V28H190.001V10.6667M199.334 16H204.667M187.334 4H216.667V10.6667H187.334V4Z" stroke="#1E1E1E" stroke-width="3" stroke-linecap="round" stroke-linejoin="round"/>
</g>
<defs>
<clipPath id="clip0_38_488">
<rect width="32" height="32" fill="white" transform="translate(186)"/>
</clipPath>
</defs>
</svg>
