<svg width="440" height="61" viewBox="0 0 440 61" fill="none" xmlns="http://www.w3.org/2000/svg">
<rect width="440" height="61" fill="url(#paint0_linear_38_479)"/>
<path d="M94.1895 42.6055L91.6406 50H90.0996L93.3105 41.4688H94.2949L94.1895 42.6055ZM96.3223 50L93.7676 42.6055L93.6562 41.4688H94.6465L97.8691 50H96.3223ZM96.1992 46.8359V48.002H91.5586V46.8359H96.1992ZM102.744 43.6602H104.027V49.8242C104.027 50.3945 103.906 50.8789 103.664 51.2773C103.422 51.6758 103.084 51.9785 102.65 52.1855C102.217 52.3965 101.715 52.502 101.145 52.502C100.902 52.502 100.633 52.4668 100.336 52.3965C100.043 52.3262 99.7578 52.2129 99.4805 52.0566C99.207 51.9043 98.9785 51.7031 98.7949 51.4531L99.457 50.6211C99.6836 50.8906 99.9336 51.0879 100.207 51.2129C100.48 51.3379 100.768 51.4004 101.068 51.4004C101.393 51.4004 101.668 51.3398 101.895 51.2188C102.125 51.1016 102.303 50.9277 102.428 50.6973C102.553 50.4668 102.615 50.1855 102.615 49.8535V45.0957L102.744 43.6602ZM98.4375 46.9004V46.7773C98.4375 46.2969 98.4961 45.8594 98.6133 45.4648C98.7305 45.0664 98.8984 44.7246 99.1172 44.4395C99.3359 44.1504 99.6016 43.9297 99.9141 43.7773C100.227 43.6211 100.58 43.543 100.975 43.543C101.385 43.543 101.734 43.6172 102.023 43.7656C102.316 43.9141 102.561 44.127 102.756 44.4043C102.951 44.6777 103.104 45.0059 103.213 45.3887C103.326 45.7676 103.41 46.1895 103.465 46.6543V47.0469C103.414 47.5 103.328 47.9141 103.207 48.2891C103.086 48.6641 102.926 48.9883 102.727 49.2617C102.527 49.5352 102.281 49.7461 101.988 49.8945C101.699 50.043 101.357 50.1172 100.963 50.1172C100.576 50.1172 100.227 50.0371 99.9141 49.877C99.6055 49.7168 99.3398 49.4922 99.1172 49.2031C98.8984 48.9141 98.7305 48.5742 98.6133 48.1836C98.4961 47.7891 98.4375 47.3613 98.4375 46.9004ZM99.8496 46.7773V46.9004C99.8496 47.1895 99.877 47.459 99.9316 47.709C99.9902 47.959 100.078 48.1797 100.195 48.3711C100.316 48.5586 100.469 48.707 100.652 48.8164C100.84 48.9219 101.061 48.9746 101.314 48.9746C101.646 48.9746 101.918 48.9043 102.129 48.7637C102.344 48.623 102.508 48.4336 102.621 48.1953C102.738 47.9531 102.82 47.6836 102.867 47.3867V46.3262C102.844 46.0957 102.795 45.8809 102.721 45.6816C102.65 45.4824 102.555 45.3086 102.434 45.1602C102.312 45.0078 102.16 44.8906 101.977 44.8086C101.793 44.7227 101.576 44.6797 101.326 44.6797C101.072 44.6797 100.852 44.7344 100.664 44.8438C100.477 44.9531 100.322 45.1035 100.201 45.2949C100.084 45.4863 99.9961 45.709 99.9375 45.9629C99.8789 46.2168 99.8496 46.4883 99.8496 46.7773ZM108.287 50.1172C107.818 50.1172 107.395 50.041 107.016 49.8887C106.641 49.7324 106.32 49.5156 106.055 49.2383C105.793 48.9609 105.592 48.6348 105.451 48.2598C105.311 47.8848 105.24 47.4805 105.24 47.0469V46.8125C105.24 46.3164 105.312 45.8672 105.457 45.4648C105.602 45.0625 105.803 44.7188 106.061 44.4336C106.318 44.1445 106.623 43.9238 106.975 43.7715C107.326 43.6191 107.707 43.543 108.117 43.543C108.57 43.543 108.967 43.6191 109.307 43.7715C109.646 43.9238 109.928 44.1387 110.15 44.416C110.377 44.6895 110.545 45.0156 110.654 45.3945C110.768 45.7734 110.824 46.1914 110.824 46.6484V47.252H105.926V46.2383H109.43V46.127C109.422 45.873 109.371 45.6348 109.277 45.4121C109.188 45.1895 109.049 45.0098 108.861 44.873C108.674 44.7363 108.424 44.668 108.111 44.668C107.877 44.668 107.668 44.7188 107.484 44.8203C107.305 44.918 107.154 45.0605 107.033 45.248C106.912 45.4355 106.818 45.6621 106.752 45.9277C106.689 46.1895 106.658 46.4844 106.658 46.8125V47.0469C106.658 47.3242 106.695 47.582 106.77 47.8203C106.848 48.0547 106.961 48.2598 107.109 48.4355C107.258 48.6113 107.438 48.75 107.648 48.8516C107.859 48.9492 108.1 48.998 108.369 48.998C108.709 48.998 109.012 48.9297 109.277 48.793C109.543 48.6562 109.773 48.4629 109.969 48.2129L110.713 48.9336C110.576 49.1328 110.398 49.3242 110.18 49.5078C109.961 49.6875 109.693 49.834 109.377 49.9473C109.064 50.0605 108.701 50.1172 108.287 50.1172ZM113.326 45.0137V50H111.914V43.6602H113.244L113.326 45.0137ZM113.074 46.5957L112.617 46.5898C112.621 46.1406 112.684 45.7285 112.805 45.3535C112.93 44.9785 113.102 44.6562 113.32 44.3867C113.543 44.1172 113.809 43.9102 114.117 43.7656C114.426 43.6172 114.77 43.543 115.148 43.543C115.453 43.543 115.729 43.5859 115.975 43.6719C116.225 43.7539 116.438 43.8887 116.613 44.0762C116.793 44.2637 116.93 44.5078 117.023 44.8086C117.117 45.1055 117.164 45.4707 117.164 45.9043V50H115.746V45.8984C115.746 45.5938 115.701 45.3535 115.611 45.1777C115.525 44.998 115.398 44.8711 115.23 44.7969C115.066 44.7188 114.861 44.6797 114.615 44.6797C114.373 44.6797 114.156 44.7305 113.965 44.832C113.773 44.9336 113.611 45.0723 113.479 45.248C113.35 45.4238 113.25 45.627 113.18 45.8574C113.109 46.0879 113.074 46.334 113.074 46.5957ZM122.473 48.6875V41H123.891V50H122.607L122.473 48.6875ZM118.348 46.9004V46.7773C118.348 46.2969 118.404 45.8594 118.518 45.4648C118.631 45.0664 118.795 44.7246 119.01 44.4395C119.225 44.1504 119.486 43.9297 119.795 43.7773C120.104 43.6211 120.451 43.543 120.838 43.543C121.221 43.543 121.557 43.6172 121.846 43.7656C122.135 43.9141 122.381 44.127 122.584 44.4043C122.787 44.6777 122.949 45.0059 123.07 45.3887C123.191 45.7676 123.277 46.1895 123.328 46.6543V47.0469C123.277 47.5 123.191 47.9141 123.07 48.2891C122.949 48.6641 122.787 48.9883 122.584 49.2617C122.381 49.5352 122.133 49.7461 121.84 49.8945C121.551 50.043 121.213 50.1172 120.826 50.1172C120.443 50.1172 120.098 50.0371 119.789 49.877C119.484 49.7168 119.225 49.4922 119.01 49.2031C118.795 48.9141 118.631 48.5742 118.518 48.1836C118.404 47.7891 118.348 47.3613 118.348 46.9004ZM119.76 46.7773V46.9004C119.76 47.1895 119.785 47.459 119.836 47.709C119.891 47.959 119.975 48.1797 120.088 48.3711C120.201 48.5586 120.348 48.707 120.527 48.8164C120.711 48.9219 120.93 48.9746 121.184 48.9746C121.504 48.9746 121.768 48.9043 121.975 48.7637C122.182 48.623 122.344 48.4336 122.461 48.1953C122.582 47.9531 122.664 47.6836 122.707 47.3867V46.3262C122.684 46.0957 122.635 45.8809 122.561 45.6816C122.49 45.4824 122.395 45.3086 122.273 45.1602C122.152 45.0078 122.002 44.8906 121.822 44.8086C121.646 44.7227 121.438 44.6797 121.195 44.6797C120.938 44.6797 120.719 44.7344 120.539 44.8438C120.359 44.9531 120.211 45.1035 120.094 45.2949C119.98 45.4863 119.896 45.709 119.842 45.9629C119.787 46.2168 119.76 46.4883 119.76 46.7773ZM128.941 48.7285V45.7051C128.941 45.4785 128.9 45.2832 128.818 45.1191C128.736 44.9551 128.611 44.8281 128.443 44.7383C128.279 44.6484 128.072 44.6035 127.822 44.6035C127.592 44.6035 127.393 44.6426 127.225 44.7207C127.057 44.7988 126.926 44.9043 126.832 45.0371C126.738 45.1699 126.691 45.3203 126.691 45.4883H125.285C125.285 45.2383 125.346 44.9961 125.467 44.7617C125.588 44.5273 125.764 44.3184 125.994 44.1348C126.225 43.9512 126.5 43.8066 126.82 43.7012C127.141 43.5957 127.5 43.543 127.898 43.543C128.375 43.543 128.797 43.623 129.164 43.7832C129.535 43.9434 129.826 44.1855 130.037 44.5098C130.252 44.8301 130.359 45.2324 130.359 45.7168V48.5352C130.359 48.8242 130.379 49.084 130.418 49.3145C130.461 49.541 130.521 49.7383 130.6 49.9062V50H129.152C129.086 49.8477 129.033 49.6543 128.994 49.4199C128.959 49.1816 128.941 48.9512 128.941 48.7285ZM129.146 46.1445L129.158 47.0176H128.145C127.883 47.0176 127.652 47.043 127.453 47.0938C127.254 47.1406 127.088 47.2109 126.955 47.3047C126.822 47.3984 126.723 47.5117 126.656 47.6445C126.59 47.7773 126.557 47.9277 126.557 48.0957C126.557 48.2637 126.596 48.418 126.674 48.5586C126.752 48.6953 126.865 48.8027 127.014 48.8809C127.166 48.959 127.35 48.998 127.564 48.998C127.854 48.998 128.105 48.9395 128.32 48.8223C128.539 48.7012 128.711 48.5547 128.836 48.3828C128.961 48.207 129.027 48.041 129.035 47.8848L129.492 48.5117C129.445 48.6719 129.365 48.8438 129.252 49.0273C129.139 49.2109 128.99 49.3867 128.807 49.5547C128.627 49.7188 128.41 49.8535 128.156 49.959C127.906 50.0645 127.617 50.1172 127.289 50.1172C126.875 50.1172 126.506 50.0352 126.182 49.8711C125.857 49.7031 125.604 49.4785 125.42 49.1973C125.236 48.9121 125.145 48.5898 125.145 48.2305C125.145 47.8945 125.207 47.5977 125.332 47.3398C125.461 47.0781 125.648 46.8594 125.895 46.6836C126.145 46.5078 126.449 46.375 126.809 46.2852C127.168 46.1914 127.578 46.1445 128.039 46.1445H129.146ZM133.248 44.9492V50H131.836V43.6602H133.166L133.248 44.9492ZM133.02 46.5957L132.539 46.5898C132.539 46.1523 132.594 45.748 132.703 45.377C132.812 45.0059 132.973 44.6836 133.184 44.4102C133.395 44.1328 133.656 43.9199 133.969 43.7715C134.285 43.6191 134.65 43.543 135.064 43.543C135.354 43.543 135.617 43.5859 135.855 43.6719C136.098 43.7539 136.307 43.8848 136.482 44.0645C136.662 44.2441 136.799 44.4746 136.893 44.7559C136.99 45.0371 137.039 45.377 137.039 45.7754V50H135.627V45.8984C135.627 45.5898 135.58 45.3477 135.486 45.1719C135.396 44.9961 135.266 44.8711 135.094 44.7969C134.926 44.7188 134.725 44.6797 134.49 44.6797C134.225 44.6797 133.998 44.7305 133.811 44.832C133.627 44.9336 133.477 45.0723 133.359 45.248C133.242 45.4238 133.156 45.627 133.102 45.8574C133.047 46.0879 133.02 46.334 133.02 46.5957ZM136.951 46.2207L136.289 46.3672C136.289 45.9844 136.342 45.623 136.447 45.2832C136.557 44.9395 136.715 44.6387 136.922 44.3809C137.133 44.1191 137.393 43.9141 137.701 43.7656C138.01 43.6172 138.363 43.543 138.762 43.543C139.086 43.543 139.375 43.5879 139.629 43.6777C139.887 43.7637 140.105 43.9004 140.285 44.0879C140.465 44.2754 140.602 44.5195 140.695 44.8203C140.789 45.1172 140.836 45.4766 140.836 45.8984V50H139.418V45.8926C139.418 45.5723 139.371 45.3242 139.277 45.1484C139.188 44.9727 139.059 44.8516 138.891 44.7852C138.723 44.7148 138.521 44.6797 138.287 44.6797C138.068 44.6797 137.875 44.7207 137.707 44.8027C137.543 44.8809 137.404 44.9922 137.291 45.1367C137.178 45.2773 137.092 45.4395 137.033 45.623C136.979 45.8066 136.951 46.0059 136.951 46.2207ZM145.084 50.1172C144.615 50.1172 144.191 50.041 143.812 49.8887C143.438 49.7324 143.117 49.5156 142.852 49.2383C142.59 48.9609 142.389 48.6348 142.248 48.2598C142.107 47.8848 142.037 47.4805 142.037 47.0469V46.8125C142.037 46.3164 142.109 45.8672 142.254 45.4648C142.398 45.0625 142.6 44.7188 142.857 44.4336C143.115 44.1445 143.42 43.9238 143.771 43.7715C144.123 43.6191 144.504 43.543 144.914 43.543C145.367 43.543 145.764 43.6191 146.104 43.7715C146.443 43.9238 146.725 44.1387 146.947 44.416C147.174 44.6895 147.342 45.0156 147.451 45.3945C147.564 45.7734 147.621 46.1914 147.621 46.6484V47.252H142.723V46.2383H146.227V46.127C146.219 45.873 146.168 45.6348 146.074 45.4121C145.984 45.1895 145.846 45.0098 145.658 44.873C145.471 44.7363 145.221 44.668 144.908 44.668C144.674 44.668 144.465 44.7188 144.281 44.8203C144.102 44.918 143.951 45.0605 143.83 45.248C143.709 45.4355 143.615 45.6621 143.549 45.9277C143.486 46.1895 143.455 46.4844 143.455 46.8125V47.0469C143.455 47.3242 143.492 47.582 143.566 47.8203C143.645 48.0547 143.758 48.2598 143.906 48.4355C144.055 48.6113 144.234 48.75 144.445 48.8516C144.656 48.9492 144.896 48.998 145.166 48.998C145.506 48.998 145.809 48.9297 146.074 48.793C146.34 48.6562 146.57 48.4629 146.766 48.2129L147.51 48.9336C147.373 49.1328 147.195 49.3242 146.977 49.5078C146.758 49.6875 146.49 49.834 146.174 49.9473C145.861 50.0605 145.498 50.1172 145.084 50.1172ZM150.123 45.0137V50H148.711V43.6602H150.041L150.123 45.0137ZM149.871 46.5957L149.414 46.5898C149.418 46.1406 149.48 45.7285 149.602 45.3535C149.727 44.9785 149.898 44.6562 150.117 44.3867C150.34 44.1172 150.605 43.9102 150.914 43.7656C151.223 43.6172 151.566 43.543 151.945 43.543C152.25 43.543 152.525 43.5859 152.771 43.6719C153.021 43.7539 153.234 43.8887 153.41 44.0762C153.59 44.2637 153.727 44.5078 153.82 44.8086C153.914 45.1055 153.961 45.4707 153.961 45.9043V50H152.543V45.8984C152.543 45.5938 152.498 45.3535 152.408 45.1777C152.322 44.998 152.195 44.8711 152.027 44.7969C151.863 44.7188 151.658 44.6797 151.412 44.6797C151.17 44.6797 150.953 44.7305 150.762 44.832C150.57 44.9336 150.408 45.0723 150.275 45.248C150.146 45.4238 150.047 45.627 149.977 45.8574C149.906 46.0879 149.871 46.334 149.871 46.5957ZM158.309 43.6602V44.6914H154.734V43.6602H158.309ZM155.766 42.1074H157.178V48.248C157.178 48.4434 157.205 48.5938 157.26 48.6992C157.318 48.8008 157.398 48.8691 157.5 48.9043C157.602 48.9395 157.721 48.957 157.857 48.957C157.955 48.957 158.049 48.9512 158.139 48.9395C158.229 48.9277 158.301 48.916 158.355 48.9043L158.361 49.9824C158.244 50.0176 158.107 50.0488 157.951 50.0762C157.799 50.1035 157.623 50.1172 157.424 50.1172C157.1 50.1172 156.812 50.0605 156.562 49.9473C156.312 49.8301 156.117 49.6406 155.977 49.3789C155.836 49.1172 155.766 48.7695 155.766 48.3359V42.1074ZM158.988 46.9004V46.7656C158.988 46.3086 159.055 45.8848 159.188 45.4941C159.32 45.0996 159.512 44.7578 159.762 44.4688C160.016 44.1758 160.324 43.9492 160.688 43.7891C161.055 43.625 161.469 43.543 161.93 43.543C162.395 43.543 162.809 43.625 163.172 43.7891C163.539 43.9492 163.85 44.1758 164.104 44.4688C164.357 44.7578 164.551 45.0996 164.684 45.4941C164.816 45.8848 164.883 46.3086 164.883 46.7656V46.9004C164.883 47.3574 164.816 47.7812 164.684 48.1719C164.551 48.5625 164.357 48.9043 164.104 49.1973C163.85 49.4863 163.541 49.7129 163.178 49.877C162.814 50.0371 162.402 50.1172 161.941 50.1172C161.477 50.1172 161.061 50.0371 160.693 49.877C160.33 49.7129 160.021 49.4863 159.768 49.1973C159.514 48.9043 159.32 48.5625 159.188 48.1719C159.055 47.7812 158.988 47.3574 158.988 46.9004ZM160.4 46.7656V46.9004C160.4 47.1855 160.43 47.4551 160.488 47.709C160.547 47.9629 160.639 48.1855 160.764 48.377C160.889 48.5684 161.049 48.7188 161.244 48.8281C161.439 48.9375 161.672 48.9922 161.941 48.9922C162.203 48.9922 162.43 48.9375 162.621 48.8281C162.816 48.7188 162.977 48.5684 163.102 48.377C163.227 48.1855 163.318 47.9629 163.377 47.709C163.439 47.4551 163.471 47.1855 163.471 46.9004V46.7656C163.471 46.4844 163.439 46.2188 163.377 45.9688C163.318 45.7148 163.225 45.4902 163.096 45.2949C162.971 45.0996 162.811 44.9473 162.615 44.8379C162.424 44.7246 162.195 44.668 161.93 44.668C161.664 44.668 161.434 44.7246 161.238 44.8379C161.047 44.9473 160.889 45.0996 160.764 45.2949C160.639 45.4902 160.547 45.7148 160.488 45.9688C160.43 46.2188 160.4 46.4844 160.4 46.7656Z" fill="black"/>
<path d="M264.107 46.8184H261.887V45.6523H264.107C264.494 45.6523 264.807 45.5898 265.045 45.4648C265.283 45.3398 265.457 45.168 265.566 44.9492C265.68 44.7266 265.736 44.4727 265.736 44.1875C265.736 43.918 265.68 43.666 265.566 43.4316C265.457 43.1934 265.283 43.002 265.045 42.8574C264.807 42.7129 264.494 42.6406 264.107 42.6406H262.338V50H260.867V41.4688H264.107C264.768 41.4688 265.328 41.5859 265.789 41.8203C266.254 42.0508 266.607 42.3711 266.85 42.7812C267.092 43.1875 267.213 43.6523 267.213 44.1758C267.213 44.7266 267.092 45.1992 266.85 45.5938C266.607 45.9883 266.254 46.291 265.789 46.502C265.328 46.7129 264.768 46.8184 264.107 46.8184ZM269.809 44.8672V50H268.396V43.6602H269.744L269.809 44.8672ZM271.748 43.6191L271.736 44.9316C271.65 44.916 271.557 44.9043 271.455 44.8965C271.357 44.8887 271.26 44.8848 271.162 44.8848C270.92 44.8848 270.707 44.9199 270.523 44.9902C270.34 45.0566 270.186 45.1543 270.061 45.2832C269.939 45.4082 269.846 45.5605 269.779 45.7402C269.713 45.9199 269.674 46.1211 269.662 46.3438L269.34 46.3672C269.34 45.9688 269.379 45.5996 269.457 45.2598C269.535 44.9199 269.652 44.6211 269.809 44.3633C269.969 44.1055 270.168 43.9043 270.406 43.7598C270.648 43.6152 270.928 43.543 271.244 43.543C271.33 43.543 271.422 43.5508 271.52 43.5664C271.621 43.582 271.697 43.5996 271.748 43.6191ZM272.211 46.9004V46.7656C272.211 46.3086 272.277 45.8848 272.41 45.4941C272.543 45.0996 272.734 44.7578 272.984 44.4688C273.238 44.1758 273.547 43.9492 273.91 43.7891C274.277 43.625 274.691 43.543 275.152 43.543C275.617 43.543 276.031 43.625 276.395 43.7891C276.762 43.9492 277.072 44.1758 277.326 44.4688C277.58 44.7578 277.773 45.0996 277.906 45.4941C278.039 45.8848 278.105 46.3086 278.105 46.7656V46.9004C278.105 47.3574 278.039 47.7812 277.906 48.1719C277.773 48.5625 277.58 48.9043 277.326 49.1973C277.072 49.4863 276.764 49.7129 276.4 49.877C276.037 50.0371 275.625 50.1172 275.164 50.1172C274.699 50.1172 274.283 50.0371 273.916 49.877C273.553 49.7129 273.244 49.4863 272.99 49.1973C272.736 48.9043 272.543 48.5625 272.41 48.1719C272.277 47.7812 272.211 47.3574 272.211 46.9004ZM273.623 46.7656V46.9004C273.623 47.1855 273.652 47.4551 273.711 47.709C273.77 47.9629 273.861 48.1855 273.986 48.377C274.111 48.5684 274.271 48.7188 274.467 48.8281C274.662 48.9375 274.895 48.9922 275.164 48.9922C275.426 48.9922 275.652 48.9375 275.844 48.8281C276.039 48.7188 276.199 48.5684 276.324 48.377C276.449 48.1855 276.541 47.9629 276.6 47.709C276.662 47.4551 276.693 47.1855 276.693 46.9004V46.7656C276.693 46.4844 276.662 46.2188 276.6 45.9688C276.541 45.7148 276.447 45.4902 276.318 45.2949C276.193 45.0996 276.033 44.9473 275.838 44.8379C275.646 44.7246 275.418 44.668 275.152 44.668C274.887 44.668 274.656 44.7246 274.461 44.8379C274.27 44.9473 274.111 45.0996 273.986 45.2949C273.861 45.4902 273.77 45.7148 273.711 45.9688C273.652 46.2188 273.623 46.4844 273.623 46.7656ZM281.879 48.9922C282.109 48.9922 282.316 48.9473 282.5 48.8574C282.688 48.7637 282.838 48.6348 282.951 48.4707C283.068 48.3066 283.133 48.1172 283.145 47.9023H284.475C284.467 48.3125 284.346 48.6855 284.111 49.0215C283.877 49.3574 283.566 49.625 283.18 49.8242C282.793 50.0195 282.365 50.1172 281.896 50.1172C281.412 50.1172 280.99 50.0352 280.631 49.8711C280.271 49.7031 279.973 49.4727 279.734 49.1797C279.496 48.8867 279.316 48.5488 279.195 48.166C279.078 47.7832 279.02 47.373 279.02 46.9355V46.7305C279.02 46.293 279.078 45.8828 279.195 45.5C279.316 45.1133 279.496 44.7734 279.734 44.4805C279.973 44.1875 280.271 43.959 280.631 43.7949C280.99 43.627 281.41 43.543 281.891 43.543C282.398 43.543 282.844 43.6445 283.227 43.8477C283.609 44.0469 283.91 44.3262 284.129 44.6855C284.352 45.041 284.467 45.4551 284.475 45.9277H283.145C283.133 45.6934 283.074 45.4824 282.969 45.2949C282.867 45.1035 282.723 44.9512 282.535 44.8379C282.352 44.7246 282.131 44.668 281.873 44.668C281.588 44.668 281.352 44.7266 281.164 44.8438C280.977 44.957 280.83 45.1133 280.725 45.3125C280.619 45.5078 280.543 45.7285 280.496 45.9746C280.453 46.2168 280.432 46.4688 280.432 46.7305V46.9355C280.432 47.1973 280.453 47.4512 280.496 47.6973C280.539 47.9434 280.613 48.1641 280.719 48.3594C280.828 48.5508 280.977 48.7051 281.164 48.8223C281.352 48.9355 281.59 48.9922 281.879 48.9922ZM288.354 50.1172C287.885 50.1172 287.461 50.041 287.082 49.8887C286.707 49.7324 286.387 49.5156 286.121 49.2383C285.859 48.9609 285.658 48.6348 285.518 48.2598C285.377 47.8848 285.307 47.4805 285.307 47.0469V46.8125C285.307 46.3164 285.379 45.8672 285.523 45.4648C285.668 45.0625 285.869 44.7188 286.127 44.4336C286.385 44.1445 286.689 43.9238 287.041 43.7715C287.393 43.6191 287.773 43.543 288.184 43.543C288.637 43.543 289.033 43.6191 289.373 43.7715C289.713 43.9238 289.994 44.1387 290.217 44.416C290.443 44.6895 290.611 45.0156 290.721 45.3945C290.834 45.7734 290.891 46.1914 290.891 46.6484V47.252H285.992V46.2383H289.496V46.127C289.488 45.873 289.438 45.6348 289.344 45.4121C289.254 45.1895 289.115 45.0098 288.928 44.873C288.74 44.7363 288.49 44.668 288.178 44.668C287.943 44.668 287.734 44.7188 287.551 44.8203C287.371 44.918 287.221 45.0605 287.1 45.248C286.979 45.4355 286.885 45.6621 286.818 45.9277C286.756 46.1895 286.725 46.4844 286.725 46.8125V47.0469C286.725 47.3242 286.762 47.582 286.836 47.8203C286.914 48.0547 287.027 48.2598 287.176 48.4355C287.324 48.6113 287.504 48.75 287.715 48.8516C287.926 48.9492 288.166 48.998 288.436 48.998C288.775 48.998 289.078 48.9297 289.344 48.793C289.609 48.6562 289.84 48.4629 290.035 48.2129L290.779 48.9336C290.643 49.1328 290.465 49.3242 290.246 49.5078C290.027 49.6875 289.76 49.834 289.443 49.9473C289.131 50.0605 288.768 50.1172 288.354 50.1172ZM295.549 48.2832C295.549 48.1426 295.514 48.0156 295.443 47.9023C295.373 47.7852 295.238 47.6797 295.039 47.5859C294.844 47.4922 294.555 47.4062 294.172 47.3281C293.836 47.2539 293.527 47.166 293.246 47.0645C292.969 46.959 292.73 46.832 292.531 46.6836C292.332 46.5352 292.178 46.3594 292.068 46.1562C291.959 45.9531 291.904 45.7188 291.904 45.4531C291.904 45.1953 291.961 44.9512 292.074 44.7207C292.188 44.4902 292.35 44.2871 292.561 44.1113C292.771 43.9355 293.027 43.7969 293.328 43.6953C293.633 43.5938 293.973 43.543 294.348 43.543C294.879 43.543 295.334 43.6328 295.713 43.8125C296.096 43.9883 296.389 44.2285 296.592 44.5332C296.795 44.834 296.896 45.1738 296.896 45.5527H295.484C295.484 45.3848 295.441 45.2285 295.355 45.084C295.273 44.9355 295.148 44.8164 294.98 44.7266C294.812 44.6328 294.602 44.5859 294.348 44.5859C294.105 44.5859 293.904 44.625 293.744 44.7031C293.588 44.7773 293.471 44.875 293.393 44.9961C293.318 45.1172 293.281 45.25 293.281 45.3945C293.281 45.5 293.301 45.5957 293.34 45.6816C293.383 45.7637 293.453 45.8398 293.551 45.9102C293.648 45.9766 293.781 46.0391 293.949 46.0977C294.121 46.1562 294.336 46.2129 294.594 46.2676C295.078 46.3691 295.494 46.5 295.842 46.6602C296.193 46.8164 296.463 47.0195 296.65 47.2695C296.838 47.5156 296.932 47.8281 296.932 48.207C296.932 48.4883 296.871 48.7461 296.75 48.9805C296.633 49.2109 296.461 49.4121 296.234 49.584C296.008 49.752 295.736 49.8828 295.42 49.9766C295.107 50.0703 294.756 50.1172 294.365 50.1172C293.791 50.1172 293.305 50.0156 292.906 49.8125C292.508 49.6055 292.205 49.3418 291.998 49.0215C291.795 48.6973 291.693 48.3613 291.693 48.0137H293.059C293.074 48.2754 293.146 48.4844 293.275 48.6406C293.408 48.793 293.572 48.9043 293.768 48.9746C293.967 49.041 294.172 49.0742 294.383 49.0742C294.637 49.0742 294.85 49.041 295.021 48.9746C295.193 48.9043 295.324 48.8105 295.414 48.6934C295.504 48.5723 295.549 48.4355 295.549 48.2832ZM301.725 48.2832C301.725 48.1426 301.689 48.0156 301.619 47.9023C301.549 47.7852 301.414 47.6797 301.215 47.5859C301.02 47.4922 300.73 47.4062 300.348 47.3281C300.012 47.2539 299.703 47.166 299.422 47.0645C299.145 46.959 298.906 46.832 298.707 46.6836C298.508 46.5352 298.354 46.3594 298.244 46.1562C298.135 45.9531 298.08 45.7188 298.08 45.4531C298.08 45.1953 298.137 44.9512 298.25 44.7207C298.363 44.4902 298.525 44.2871 298.736 44.1113C298.947 43.9355 299.203 43.7969 299.504 43.6953C299.809 43.5938 300.148 43.543 300.523 43.543C301.055 43.543 301.51 43.6328 301.889 43.8125C302.271 43.9883 302.564 44.2285 302.768 44.5332C302.971 44.834 303.072 45.1738 303.072 45.5527H301.66C301.66 45.3848 301.617 45.2285 301.531 45.084C301.449 44.9355 301.324 44.8164 301.156 44.7266C300.988 44.6328 300.777 44.5859 300.523 44.5859C300.281 44.5859 300.08 44.625 299.92 44.7031C299.764 44.7773 299.646 44.875 299.568 44.9961C299.494 45.1172 299.457 45.25 299.457 45.3945C299.457 45.5 299.477 45.5957 299.516 45.6816C299.559 45.7637 299.629 45.8398 299.727 45.9102C299.824 45.9766 299.957 46.0391 300.125 46.0977C300.297 46.1562 300.512 46.2129 300.77 46.2676C301.254 46.3691 301.67 46.5 302.018 46.6602C302.369 46.8164 302.639 47.0195 302.826 47.2695C303.014 47.5156 303.107 47.8281 303.107 48.207C303.107 48.4883 303.047 48.7461 302.926 48.9805C302.809 49.2109 302.637 49.4121 302.41 49.584C302.184 49.752 301.912 49.8828 301.596 49.9766C301.283 50.0703 300.932 50.1172 300.541 50.1172C299.967 50.1172 299.48 50.0156 299.082 49.8125C298.684 49.6055 298.381 49.3418 298.174 49.0215C297.971 48.6973 297.869 48.3613 297.869 48.0137H299.234C299.25 48.2754 299.322 48.4844 299.451 48.6406C299.584 48.793 299.748 48.9043 299.943 48.9746C300.143 49.041 300.348 49.0742 300.559 49.0742C300.812 49.0742 301.025 49.041 301.197 48.9746C301.369 48.9043 301.5 48.8105 301.59 48.6934C301.68 48.5723 301.725 48.4355 301.725 48.2832ZM304.074 46.9004V46.7656C304.074 46.3086 304.141 45.8848 304.273 45.4941C304.406 45.0996 304.598 44.7578 304.848 44.4688C305.102 44.1758 305.41 43.9492 305.773 43.7891C306.141 43.625 306.555 43.543 307.016 43.543C307.48 43.543 307.895 43.625 308.258 43.7891C308.625 43.9492 308.936 44.1758 309.189 44.4688C309.443 44.7578 309.637 45.0996 309.77 45.4941C309.902 45.8848 309.969 46.3086 309.969 46.7656V46.9004C309.969 47.3574 309.902 47.7812 309.77 48.1719C309.637 48.5625 309.443 48.9043 309.189 49.1973C308.936 49.4863 308.627 49.7129 308.264 49.877C307.9 50.0371 307.488 50.1172 307.027 50.1172C306.562 50.1172 306.146 50.0371 305.779 49.877C305.416 49.7129 305.107 49.4863 304.854 49.1973C304.6 48.9043 304.406 48.5625 304.273 48.1719C304.141 47.7812 304.074 47.3574 304.074 46.9004ZM305.486 46.7656V46.9004C305.486 47.1855 305.516 47.4551 305.574 47.709C305.633 47.9629 305.725 48.1855 305.85 48.377C305.975 48.5684 306.135 48.7188 306.33 48.8281C306.525 48.9375 306.758 48.9922 307.027 48.9922C307.289 48.9922 307.516 48.9375 307.707 48.8281C307.902 48.7188 308.062 48.5684 308.188 48.377C308.312 48.1855 308.404 47.9629 308.463 47.709C308.525 47.4551 308.557 47.1855 308.557 46.9004V46.7656C308.557 46.4844 308.525 46.2188 308.463 45.9688C308.404 45.7148 308.311 45.4902 308.182 45.2949C308.057 45.0996 307.896 44.9473 307.701 44.8379C307.51 44.7246 307.281 44.668 307.016 44.668C306.75 44.668 306.52 44.7246 306.324 44.8379C306.133 44.9473 305.975 45.0996 305.85 45.2949C305.725 45.4902 305.633 45.7148 305.574 45.9688C305.516 46.2188 305.486 46.4844 305.486 46.7656ZM314.709 48.2832C314.709 48.1426 314.674 48.0156 314.604 47.9023C314.533 47.7852 314.398 47.6797 314.199 47.5859C314.004 47.4922 313.715 47.4062 313.332 47.3281C312.996 47.2539 312.688 47.166 312.406 47.0645C312.129 46.959 311.891 46.832 311.691 46.6836C311.492 46.5352 311.338 46.3594 311.229 46.1562C311.119 45.9531 311.064 45.7188 311.064 45.4531C311.064 45.1953 311.121 44.9512 311.234 44.7207C311.348 44.4902 311.51 44.2871 311.721 44.1113C311.932 43.9355 312.188 43.7969 312.488 43.6953C312.793 43.5938 313.133 43.543 313.508 43.543C314.039 43.543 314.494 43.6328 314.873 43.8125C315.256 43.9883 315.549 44.2285 315.752 44.5332C315.955 44.834 316.057 45.1738 316.057 45.5527H314.645C314.645 45.3848 314.602 45.2285 314.516 45.084C314.434 44.9355 314.309 44.8164 314.141 44.7266C313.973 44.6328 313.762 44.5859 313.508 44.5859C313.266 44.5859 313.064 44.625 312.904 44.7031C312.748 44.7773 312.631 44.875 312.553 44.9961C312.479 45.1172 312.441 45.25 312.441 45.3945C312.441 45.5 312.461 45.5957 312.5 45.6816C312.543 45.7637 312.613 45.8398 312.711 45.9102C312.809 45.9766 312.941 46.0391 313.109 46.0977C313.281 46.1562 313.496 46.2129 313.754 46.2676C314.238 46.3691 314.654 46.5 315.002 46.6602C315.354 46.8164 315.623 47.0195 315.811 47.2695C315.998 47.5156 316.092 47.8281 316.092 48.207C316.092 48.4883 316.031 48.7461 315.91 48.9805C315.793 49.2109 315.621 49.4121 315.395 49.584C315.168 49.752 314.896 49.8828 314.58 49.9766C314.268 50.0703 313.916 50.1172 313.525 50.1172C312.951 50.1172 312.465 50.0156 312.066 49.8125C311.668 49.6055 311.365 49.3418 311.158 49.0215C310.955 48.6973 310.854 48.3613 310.854 48.0137H312.219C312.234 48.2754 312.307 48.4844 312.436 48.6406C312.568 48.793 312.732 48.9043 312.928 48.9746C313.127 49.041 313.332 49.0742 313.543 49.0742C313.797 49.0742 314.01 49.041 314.182 48.9746C314.354 48.9043 314.484 48.8105 314.574 48.6934C314.664 48.5723 314.709 48.4355 314.709 48.2832ZM323.873 48.2832C323.873 48.1426 323.838 48.0156 323.768 47.9023C323.697 47.7852 323.562 47.6797 323.363 47.5859C323.168 47.4922 322.879 47.4062 322.496 47.3281C322.16 47.2539 321.852 47.166 321.57 47.0645C321.293 46.959 321.055 46.832 320.855 46.6836C320.656 46.5352 320.502 46.3594 320.393 46.1562C320.283 45.9531 320.229 45.7188 320.229 45.4531C320.229 45.1953 320.285 44.9512 320.398 44.7207C320.512 44.4902 320.674 44.2871 320.885 44.1113C321.096 43.9355 321.352 43.7969 321.652 43.6953C321.957 43.5938 322.297 43.543 322.672 43.543C323.203 43.543 323.658 43.6328 324.037 43.8125C324.42 43.9883 324.713 44.2285 324.916 44.5332C325.119 44.834 325.221 45.1738 325.221 45.5527H323.809C323.809 45.3848 323.766 45.2285 323.68 45.084C323.598 44.9355 323.473 44.8164 323.305 44.7266C323.137 44.6328 322.926 44.5859 322.672 44.5859C322.43 44.5859 322.229 44.625 322.068 44.7031C321.912 44.7773 321.795 44.875 321.717 44.9961C321.643 45.1172 321.605 45.25 321.605 45.3945C321.605 45.5 321.625 45.5957 321.664 45.6816C321.707 45.7637 321.777 45.8398 321.875 45.9102C321.973 45.9766 322.105 46.0391 322.273 46.0977C322.445 46.1562 322.66 46.2129 322.918 46.2676C323.402 46.3691 323.818 46.5 324.166 46.6602C324.518 46.8164 324.787 47.0195 324.975 47.2695C325.162 47.5156 325.256 47.8281 325.256 48.207C325.256 48.4883 325.195 48.7461 325.074 48.9805C324.957 49.2109 324.785 49.4121 324.559 49.584C324.332 49.752 324.061 49.8828 323.744 49.9766C323.432 50.0703 323.08 50.1172 322.689 50.1172C322.115 50.1172 321.629 50.0156 321.23 49.8125C320.832 49.6055 320.529 49.3418 320.322 49.0215C320.119 48.6973 320.018 48.3613 320.018 48.0137H321.383C321.398 48.2754 321.471 48.4844 321.6 48.6406C321.732 48.793 321.896 48.9043 322.092 48.9746C322.291 49.041 322.496 49.0742 322.707 49.0742C322.961 49.0742 323.174 49.041 323.346 48.9746C323.518 48.9043 323.648 48.8105 323.738 48.6934C323.828 48.5723 323.873 48.4355 323.873 48.2832ZM329.287 50.1172C328.818 50.1172 328.395 50.041 328.016 49.8887C327.641 49.7324 327.32 49.5156 327.055 49.2383C326.793 48.9609 326.592 48.6348 326.451 48.2598C326.311 47.8848 326.24 47.4805 326.24 47.0469V46.8125C326.24 46.3164 326.312 45.8672 326.457 45.4648C326.602 45.0625 326.803 44.7188 327.061 44.4336C327.318 44.1445 327.623 43.9238 327.975 43.7715C328.326 43.6191 328.707 43.543 329.117 43.543C329.57 43.543 329.967 43.6191 330.307 43.7715C330.646 43.9238 330.928 44.1387 331.15 44.416C331.377 44.6895 331.545 45.0156 331.654 45.3945C331.768 45.7734 331.824 46.1914 331.824 46.6484V47.252H326.926V46.2383H330.43V46.127C330.422 45.873 330.371 45.6348 330.277 45.4121C330.188 45.1895 330.049 45.0098 329.861 44.873C329.674 44.7363 329.424 44.668 329.111 44.668C328.877 44.668 328.668 44.7188 328.484 44.8203C328.305 44.918 328.154 45.0605 328.033 45.248C327.912 45.4355 327.818 45.6621 327.752 45.9277C327.689 46.1895 327.658 46.4844 327.658 46.8125V47.0469C327.658 47.3242 327.695 47.582 327.77 47.8203C327.848 48.0547 327.961 48.2598 328.109 48.4355C328.258 48.6113 328.438 48.75 328.648 48.8516C328.859 48.9492 329.1 48.998 329.369 48.998C329.709 48.998 330.012 48.9297 330.277 48.793C330.543 48.6562 330.773 48.4629 330.969 48.2129L331.713 48.9336C331.576 49.1328 331.398 49.3242 331.18 49.5078C330.961 49.6875 330.693 49.834 330.377 49.9473C330.064 50.0605 329.701 50.1172 329.287 50.1172ZM334.438 41V50H333.02V41H334.438ZM338.779 50.1172C338.311 50.1172 337.887 50.041 337.508 49.8887C337.133 49.7324 336.812 49.5156 336.547 49.2383C336.285 48.9609 336.084 48.6348 335.943 48.2598C335.803 47.8848 335.732 47.4805 335.732 47.0469V46.8125C335.732 46.3164 335.805 45.8672 335.949 45.4648C336.094 45.0625 336.295 44.7188 336.553 44.4336C336.811 44.1445 337.115 43.9238 337.467 43.7715C337.818 43.6191 338.199 43.543 338.609 43.543C339.062 43.543 339.459 43.6191 339.799 43.7715C340.139 43.9238 340.42 44.1387 340.643 44.416C340.869 44.6895 341.037 45.0156 341.146 45.3945C341.26 45.7734 341.316 46.1914 341.316 46.6484V47.252H336.418V46.2383H339.922V46.127C339.914 45.873 339.863 45.6348 339.77 45.4121C339.68 45.1895 339.541 45.0098 339.354 44.873C339.166 44.7363 338.916 44.668 338.604 44.668C338.369 44.668 338.16 44.7188 337.977 44.8203C337.797 44.918 337.646 45.0605 337.525 45.248C337.404 45.4355 337.311 45.6621 337.244 45.9277C337.182 46.1895 337.15 46.4844 337.15 46.8125V47.0469C337.15 47.3242 337.188 47.582 337.262 47.8203C337.34 48.0547 337.453 48.2598 337.602 48.4355C337.75 48.6113 337.93 48.75 338.141 48.8516C338.352 48.9492 338.592 48.998 338.861 48.998C339.201 48.998 339.504 48.9297 339.77 48.793C340.035 48.6562 340.266 48.4629 340.461 48.2129L341.205 48.9336C341.068 49.1328 340.891 49.3242 340.672 49.5078C340.453 49.6875 340.186 49.834 339.869 49.9473C339.557 50.0605 339.193 50.1172 338.779 50.1172ZM345.324 43.6602V44.6914H341.75V43.6602H345.324ZM342.781 42.1074H344.193V48.248C344.193 48.4434 344.221 48.5938 344.275 48.6992C344.334 48.8008 344.414 48.8691 344.516 48.9043C344.617 48.9395 344.736 48.957 344.873 48.957C344.971 48.957 345.064 48.9512 345.154 48.9395C345.244 48.9277 345.316 48.916 345.371 48.9043L345.377 49.9824C345.26 50.0176 345.123 50.0488 344.967 50.0762C344.814 50.1035 344.639 50.1172 344.439 50.1172C344.115 50.1172 343.828 50.0605 343.578 49.9473C343.328 49.8301 343.133 49.6406 342.992 49.3789C342.852 49.1172 342.781 48.7695 342.781 48.3359V42.1074ZM347.926 43.6602V50H346.508V43.6602H347.926ZM346.414 41.9961C346.414 41.7812 346.484 41.6035 346.625 41.4629C346.77 41.3184 346.969 41.2461 347.223 41.2461C347.473 41.2461 347.67 41.3184 347.814 41.4629C347.959 41.6035 348.031 41.7812 348.031 41.9961C348.031 42.207 347.959 42.3828 347.814 42.5234C347.67 42.6641 347.473 42.7344 347.223 42.7344C346.969 42.7344 346.77 42.6641 346.625 42.5234C346.484 42.3828 346.414 42.207 346.414 41.9961ZM351.535 48.8809L353.088 43.6602H354.553L352.35 50H351.436L351.535 48.8809ZM350.346 43.6602L351.928 48.9043L352.004 50H351.09L348.875 43.6602H350.346ZM355.062 46.9004V46.7656C355.062 46.3086 355.129 45.8848 355.262 45.4941C355.395 45.0996 355.586 44.7578 355.836 44.4688C356.09 44.1758 356.398 43.9492 356.762 43.7891C357.129 43.625 357.543 43.543 358.004 43.543C358.469 43.543 358.883 43.625 359.246 43.7891C359.613 43.9492 359.924 44.1758 360.178 44.4688C360.432 44.7578 360.625 45.0996 360.758 45.4941C360.891 45.8848 360.957 46.3086 360.957 46.7656V46.9004C360.957 47.3574 360.891 47.7812 360.758 48.1719C360.625 48.5625 360.432 48.9043 360.178 49.1973C359.924 49.4863 359.615 49.7129 359.252 49.877C358.889 50.0371 358.477 50.1172 358.016 50.1172C357.551 50.1172 357.135 50.0371 356.768 49.877C356.404 49.7129 356.096 49.4863 355.842 49.1973C355.588 48.9043 355.395 48.5625 355.262 48.1719C355.129 47.7812 355.062 47.3574 355.062 46.9004ZM356.475 46.7656V46.9004C356.475 47.1855 356.504 47.4551 356.562 47.709C356.621 47.9629 356.713 48.1855 356.838 48.377C356.963 48.5684 357.123 48.7188 357.318 48.8281C357.514 48.9375 357.746 48.9922 358.016 48.9922C358.277 48.9922 358.504 48.9375 358.695 48.8281C358.891 48.7188 359.051 48.5684 359.176 48.377C359.301 48.1855 359.393 47.9629 359.451 47.709C359.514 47.4551 359.545 47.1855 359.545 46.9004V46.7656C359.545 46.4844 359.514 46.2188 359.451 45.9688C359.393 45.7148 359.299 45.4902 359.17 45.2949C359.045 45.0996 358.885 44.9473 358.689 44.8379C358.498 44.7246 358.27 44.668 358.004 44.668C357.738 44.668 357.508 44.7246 357.312 44.8379C357.121 44.9473 356.963 45.0996 356.838 45.2949C356.713 45.4902 356.621 45.7148 356.562 45.9688C356.504 46.2188 356.475 46.4844 356.475 46.7656ZM365.697 48.2832C365.697 48.1426 365.662 48.0156 365.592 47.9023C365.521 47.7852 365.387 47.6797 365.188 47.5859C364.992 47.4922 364.703 47.4062 364.32 47.3281C363.984 47.2539 363.676 47.166 363.395 47.0645C363.117 46.959 362.879 46.832 362.68 46.6836C362.48 46.5352 362.326 46.3594 362.217 46.1562C362.107 45.9531 362.053 45.7188 362.053 45.4531C362.053 45.1953 362.109 44.9512 362.223 44.7207C362.336 44.4902 362.498 44.2871 362.709 44.1113C362.92 43.9355 363.176 43.7969 363.477 43.6953C363.781 43.5938 364.121 43.543 364.496 43.543C365.027 43.543 365.482 43.6328 365.861 43.8125C366.244 43.9883 366.537 44.2285 366.74 44.5332C366.943 44.834 367.045 45.1738 367.045 45.5527H365.633C365.633 45.3848 365.59 45.2285 365.504 45.084C365.422 44.9355 365.297 44.8164 365.129 44.7266C364.961 44.6328 364.75 44.5859 364.496 44.5859C364.254 44.5859 364.053 44.625 363.893 44.7031C363.736 44.7773 363.619 44.875 363.541 44.9961C363.467 45.1172 363.43 45.25 363.43 45.3945C363.43 45.5 363.449 45.5957 363.488 45.6816C363.531 45.7637 363.602 45.8398 363.699 45.9102C363.797 45.9766 363.93 46.0391 364.098 46.0977C364.27 46.1562 364.484 46.2129 364.742 46.2676C365.227 46.3691 365.643 46.5 365.99 46.6602C366.342 46.8164 366.611 47.0195 366.799 47.2695C366.986 47.5156 367.08 47.8281 367.08 48.207C367.08 48.4883 367.02 48.7461 366.898 48.9805C366.781 49.2109 366.609 49.4121 366.383 49.584C366.156 49.752 365.885 49.8828 365.568 49.9766C365.256 50.0703 364.904 50.1172 364.514 50.1172C363.939 50.1172 363.453 50.0156 363.055 49.8125C362.656 49.6055 362.354 49.3418 362.146 49.0215C361.943 48.6973 361.842 48.3613 361.842 48.0137H363.207C363.223 48.2754 363.295 48.4844 363.424 48.6406C363.557 48.793 363.721 48.9043 363.916 48.9746C364.115 49.041 364.32 49.0742 364.531 49.0742C364.785 49.0742 364.998 49.041 365.17 48.9746C365.342 48.9043 365.473 48.8105 365.562 48.6934C365.652 48.5723 365.697 48.4355 365.697 48.2832Z" fill="black"/>
<path d="M206.791 48.4414L209.035 41.4688H210.658L207.6 50H206.504L206.791 48.4414ZM204.717 41.4688L206.943 48.4414L207.248 50H206.146L203.1 41.4688H204.717ZM214.777 48.7285V45.7051C214.777 45.4785 214.736 45.2832 214.654 45.1191C214.572 44.9551 214.447 44.8281 214.279 44.7383C214.115 44.6484 213.908 44.6035 213.658 44.6035C213.428 44.6035 213.229 44.6426 213.061 44.7207C212.893 44.7988 212.762 44.9043 212.668 45.0371C212.574 45.1699 212.527 45.3203 212.527 45.4883H211.121C211.121 45.2383 211.182 44.9961 211.303 44.7617C211.424 44.5273 211.6 44.3184 211.83 44.1348C212.061 43.9512 212.336 43.8066 212.656 43.7012C212.977 43.5957 213.336 43.543 213.734 43.543C214.211 43.543 214.633 43.623 215 43.7832C215.371 43.9434 215.662 44.1855 215.873 44.5098C216.088 44.8301 216.195 45.2324 216.195 45.7168V48.5352C216.195 48.8242 216.215 49.084 216.254 49.3145C216.297 49.541 216.357 49.7383 216.436 49.9062V50H214.988C214.922 49.8477 214.869 49.6543 214.83 49.4199C214.795 49.1816 214.777 48.9512 214.777 48.7285ZM214.982 46.1445L214.994 47.0176H213.98C213.719 47.0176 213.488 47.043 213.289 47.0938C213.09 47.1406 212.924 47.2109 212.791 47.3047C212.658 47.3984 212.559 47.5117 212.492 47.6445C212.426 47.7773 212.393 47.9277 212.393 48.0957C212.393 48.2637 212.432 48.418 212.51 48.5586C212.588 48.6953 212.701 48.8027 212.85 48.8809C213.002 48.959 213.186 48.998 213.4 48.998C213.689 48.998 213.941 48.9395 214.156 48.8223C214.375 48.7012 214.547 48.5547 214.672 48.3828C214.797 48.207 214.863 48.041 214.871 47.8848L215.328 48.5117C215.281 48.6719 215.201 48.8438 215.088 49.0273C214.975 49.2109 214.826 49.3867 214.643 49.5547C214.463 49.7188 214.246 49.8535 213.992 49.959C213.742 50.0645 213.453 50.1172 213.125 50.1172C212.711 50.1172 212.342 50.0352 212.018 49.8711C211.693 49.7031 211.439 49.4785 211.256 49.1973C211.072 48.9121 210.98 48.5898 210.98 48.2305C210.98 47.8945 211.043 47.5977 211.168 47.3398C211.297 47.0781 211.484 46.8594 211.73 46.6836C211.98 46.5078 212.285 46.375 212.645 46.2852C213.004 46.1914 213.414 46.1445 213.875 46.1445H214.982ZM221.732 43.6602H223.016V49.8242C223.016 50.3945 222.895 50.8789 222.652 51.2773C222.41 51.6758 222.072 51.9785 221.639 52.1855C221.205 52.3965 220.703 52.502 220.133 52.502C219.891 52.502 219.621 52.4668 219.324 52.3965C219.031 52.3262 218.746 52.2129 218.469 52.0566C218.195 51.9043 217.967 51.7031 217.783 51.4531L218.445 50.6211C218.672 50.8906 218.922 51.0879 219.195 51.2129C219.469 51.3379 219.756 51.4004 220.057 51.4004C220.381 51.4004 220.656 51.3398 220.883 51.2188C221.113 51.1016 221.291 50.9277 221.416 50.6973C221.541 50.4668 221.604 50.1855 221.604 49.8535V45.0957L221.732 43.6602ZM217.426 46.9004V46.7773C217.426 46.2969 217.484 45.8594 217.602 45.4648C217.719 45.0664 217.887 44.7246 218.105 44.4395C218.324 44.1504 218.59 43.9297 218.902 43.7773C219.215 43.6211 219.568 43.543 219.963 43.543C220.373 43.543 220.723 43.6172 221.012 43.7656C221.305 43.9141 221.549 44.127 221.744 44.4043C221.939 44.6777 222.092 45.0059 222.201 45.3887C222.314 45.7676 222.398 46.1895 222.453 46.6543V47.0469C222.402 47.5 222.316 47.9141 222.195 48.2891C222.074 48.6641 221.914 48.9883 221.715 49.2617C221.516 49.5352 221.27 49.7461 220.977 49.8945C220.688 50.043 220.346 50.1172 219.951 50.1172C219.564 50.1172 219.215 50.0371 218.902 49.877C218.594 49.7168 218.328 49.4922 218.105 49.2031C217.887 48.9141 217.719 48.5742 217.602 48.1836C217.484 47.7891 217.426 47.3613 217.426 46.9004ZM218.838 46.7773V46.9004C218.838 47.1895 218.865 47.459 218.92 47.709C218.979 47.959 219.066 48.1797 219.184 48.3711C219.305 48.5586 219.457 48.707 219.641 48.8164C219.828 48.9219 220.049 48.9746 220.303 48.9746C220.635 48.9746 220.906 48.9043 221.117 48.7637C221.332 48.623 221.496 48.4336 221.609 48.1953C221.727 47.9531 221.809 47.6836 221.855 47.3867V46.3262C221.832 46.0957 221.783 45.8809 221.709 45.6816C221.639 45.4824 221.543 45.3086 221.422 45.1602C221.301 45.0078 221.148 44.8906 220.965 44.8086C220.781 44.7227 220.564 44.6797 220.314 44.6797C220.061 44.6797 219.84 44.7344 219.652 44.8438C219.465 44.9531 219.311 45.1035 219.189 45.2949C219.072 45.4863 218.984 45.709 218.926 45.9629C218.867 46.2168 218.838 46.4883 218.838 46.7773ZM228.055 48.7285V45.7051C228.055 45.4785 228.014 45.2832 227.932 45.1191C227.85 44.9551 227.725 44.8281 227.557 44.7383C227.393 44.6484 227.186 44.6035 226.936 44.6035C226.705 44.6035 226.506 44.6426 226.338 44.7207C226.17 44.7988 226.039 44.9043 225.945 45.0371C225.852 45.1699 225.805 45.3203 225.805 45.4883H224.398C224.398 45.2383 224.459 44.9961 224.58 44.7617C224.701 44.5273 224.877 44.3184 225.107 44.1348C225.338 43.9512 225.613 43.8066 225.934 43.7012C226.254 43.5957 226.613 43.543 227.012 43.543C227.488 43.543 227.91 43.623 228.277 43.7832C228.648 43.9434 228.939 44.1855 229.15 44.5098C229.365 44.8301 229.473 45.2324 229.473 45.7168V48.5352C229.473 48.8242 229.492 49.084 229.531 49.3145C229.574 49.541 229.635 49.7383 229.713 49.9062V50H228.266C228.199 49.8477 228.146 49.6543 228.107 49.4199C228.072 49.1816 228.055 48.9512 228.055 48.7285ZM228.26 46.1445L228.271 47.0176H227.258C226.996 47.0176 226.766 47.043 226.566 47.0938C226.367 47.1406 226.201 47.2109 226.068 47.3047C225.936 47.3984 225.836 47.5117 225.77 47.6445C225.703 47.7773 225.67 47.9277 225.67 48.0957C225.67 48.2637 225.709 48.418 225.787 48.5586C225.865 48.6953 225.979 48.8027 226.127 48.8809C226.279 48.959 226.463 48.998 226.678 48.998C226.967 48.998 227.219 48.9395 227.434 48.8223C227.652 48.7012 227.824 48.5547 227.949 48.3828C228.074 48.207 228.141 48.041 228.148 47.8848L228.605 48.5117C228.559 48.6719 228.479 48.8438 228.365 49.0273C228.252 49.2109 228.104 49.3867 227.92 49.5547C227.74 49.7188 227.523 49.8535 227.27 49.959C227.02 50.0645 226.73 50.1172 226.402 50.1172C225.988 50.1172 225.619 50.0352 225.295 49.8711C224.971 49.7031 224.717 49.4785 224.533 49.1973C224.35 48.9121 224.258 48.5898 224.258 48.2305C224.258 47.8945 224.32 47.5977 224.445 47.3398C224.574 47.0781 224.762 46.8594 225.008 46.6836C225.258 46.5078 225.562 46.375 225.922 46.2852C226.281 46.1914 226.691 46.1445 227.152 46.1445H228.26ZM234.506 48.2832C234.506 48.1426 234.471 48.0156 234.4 47.9023C234.33 47.7852 234.195 47.6797 233.996 47.5859C233.801 47.4922 233.512 47.4062 233.129 47.3281C232.793 47.2539 232.484 47.166 232.203 47.0645C231.926 46.959 231.688 46.832 231.488 46.6836C231.289 46.5352 231.135 46.3594 231.025 46.1562C230.916 45.9531 230.861 45.7188 230.861 45.4531C230.861 45.1953 230.918 44.9512 231.031 44.7207C231.145 44.4902 231.307 44.2871 231.518 44.1113C231.729 43.9355 231.984 43.7969 232.285 43.6953C232.59 43.5938 232.93 43.543 233.305 43.543C233.836 43.543 234.291 43.6328 234.67 43.8125C235.053 43.9883 235.346 44.2285 235.549 44.5332C235.752 44.834 235.854 45.1738 235.854 45.5527H234.441C234.441 45.3848 234.398 45.2285 234.312 45.084C234.23 44.9355 234.105 44.8164 233.938 44.7266C233.77 44.6328 233.559 44.5859 233.305 44.5859C233.062 44.5859 232.861 44.625 232.701 44.7031C232.545 44.7773 232.428 44.875 232.35 44.9961C232.275 45.1172 232.238 45.25 232.238 45.3945C232.238 45.5 232.258 45.5957 232.297 45.6816C232.34 45.7637 232.41 45.8398 232.508 45.9102C232.605 45.9766 232.738 46.0391 232.906 46.0977C233.078 46.1562 233.293 46.2129 233.551 46.2676C234.035 46.3691 234.451 46.5 234.799 46.6602C235.15 46.8164 235.42 47.0195 235.607 47.2695C235.795 47.5156 235.889 47.8281 235.889 48.207C235.889 48.4883 235.828 48.7461 235.707 48.9805C235.59 49.2109 235.418 49.4121 235.191 49.584C234.965 49.752 234.693 49.8828 234.377 49.9766C234.064 50.0703 233.713 50.1172 233.322 50.1172C232.748 50.1172 232.262 50.0156 231.863 49.8125C231.465 49.6055 231.162 49.3418 230.955 49.0215C230.752 48.6973 230.65 48.3613 230.65 48.0137H232.016C232.031 48.2754 232.104 48.4844 232.232 48.6406C232.365 48.793 232.529 48.9043 232.725 48.9746C232.924 49.041 233.129 49.0742 233.34 49.0742C233.594 49.0742 233.807 49.041 233.979 48.9746C234.15 48.9043 234.281 48.8105 234.371 48.6934C234.461 48.5723 234.506 48.4355 234.506 48.2832Z" fill="black"/>
<path d="M132.333 6.6665V11.9998M121.667 6.6665V11.9998M115 17.3332H139M117.667 9.33317H136.333C137.806 9.33317 139 10.5271 139 11.9998V30.6665C139 32.1393 137.806 33.3332 136.333 33.3332H117.667C116.194 33.3332 115 32.1393 115 30.6665V11.9998C115 10.5271 116.194 9.33317 117.667 9.33317Z" stroke="#1E1E1E" stroke-width="3" stroke-linecap="round" stroke-linejoin="round"/>
<path d="M225.333 32V10.6667C225.333 9.95942 225.052 9.28115 224.552 8.78105C224.052 8.28095 223.373 8 222.666 8H217.333C216.625 8 215.947 8.28095 215.447 8.78105C214.947 9.28115 214.666 9.95942 214.666 10.6667V32M209.333 13.3333H230.666C232.139 13.3333 233.333 14.5272 233.333 16V29.3333C233.333 30.8061 232.139 32 230.666 32H209.333C207.86 32 206.666 30.8061 206.666 29.3333V16C206.666 14.5272 207.86 13.3333 209.333 13.3333Z" stroke="#1E1E1E" stroke-width="3" stroke-linecap="round" stroke-linejoin="round"/>
<g clip-path="url(#clip0_38_479)">
<path d="M325.001 14.6667V32H301.001V14.6667M310.334 20H315.667M298.334 8H327.667V14.6667H298.334V8Z" stroke="#1E1E1E" stroke-width="3" stroke-linecap="round" stroke-linejoin="round"/>
</g>
<defs>
<linearGradient id="paint0_linear_38_479" x1="0" y1="30.5" x2="440" y2="30.5" gradientUnits="userSpaceOnUse">
<stop stop-color="#67CCFF"/>
<stop offset="1" stop-color="white"/>
</linearGradient>
<clipPath id="clip0_38_479">
<rect width="32" height="32" fill="white" transform="translate(297 4)"/>
</clipPath>
</defs>
</svg>
