<svg width="400" height="400" viewBox="0 0 400 400" fill="none" xmlns="http://www.w3.org/2000/svg">
<path d="M83.3333 350H316.667C335.076 350 350 335.076 350 316.667V83.3333C350 64.9238 335.076 50 316.667 50H83.3333C64.9238 50 50 64.9238 50 83.3333V316.667C50 335.076 64.9238 350 83.3333 350ZM83.3333 350L266.667 166.667L350 250M166.667 141.667C166.667 155.474 155.474 166.667 141.667 166.667C127.86 166.667 116.667 155.474 116.667 141.667C116.667 127.86 127.86 116.667 141.667 116.667C155.474 116.667 166.667 127.86 166.667 141.667Z" stroke="#1E1E1E" stroke-width="3" stroke-linecap="round" stroke-linejoin="round"/>
</svg>
