<svg width="35" height="35" viewBox="0 0 35 35" fill="none" xmlns="http://www.w3.org/2000/svg">
<g clip-path="url(#clip0_182_639)">
<path d="M25.5202 9.47925H25.5348M10.2077 2.91675H24.791C28.8181 2.91675 32.0827 6.18134 32.0827 10.2084V24.7917C32.0827 28.8188 28.8181 32.0834 24.791 32.0834H10.2077C6.18061 32.0834 2.91602 28.8188 2.91602 24.7917V10.2084C2.91602 6.18134 6.18061 2.91675 10.2077 2.91675ZM23.3327 16.5813C23.5127 17.795 23.3053 19.0346 22.7402 20.1236C22.1751 21.2127 21.281 22.0959 20.1851 22.6475C19.0891 23.1992 17.8471 23.3912 16.6357 23.1962C15.4243 23.0013 14.3052 22.4294 13.4377 21.5618C12.5701 20.6942 11.9981 19.5751 11.8032 18.3637C11.6083 17.1523 11.8003 15.9103 12.3519 14.8144C12.9035 13.7184 13.7867 12.8243 14.8758 12.2592C15.9649 11.6941 17.2044 11.4868 18.4181 11.6667C19.6561 11.8503 20.8023 12.4272 21.6872 13.3122C22.5722 14.1972 23.1491 15.3433 23.3327 16.5813Z" stroke="#1E1E1E" stroke-width="4" stroke-linecap="round" stroke-linejoin="round"/>
</g>
<defs>
<clipPath id="clip0_182_639">
<rect width="35" height="35" fill="white"/>
</clipPath>
</defs>
</svg>
