<svg width="35" height="35" viewBox="0 0 35 35" fill="none" xmlns="http://www.w3.org/2000/svg">
<g clip-path="url(#clip0_182_641)">
<path d="M33.5423 4.37502C32.1458 5.36009 30.5996 6.11351 28.9632 6.60627C28.0849 5.59639 26.9176 4.88061 25.6192 4.55574C24.3209 4.23087 22.9541 4.31259 21.7037 4.78984C20.4533 5.26709 19.3796 6.11685 18.6279 7.22419C17.8762 8.33152 17.4827 9.64301 17.5007 10.9813V12.4396C14.9378 12.5061 12.3983 11.9377 10.1084 10.785C7.8184 9.63242 5.84903 7.93136 4.37565 5.83335C4.37565 5.83335 -1.45768 18.9583 11.6673 24.7917C8.66392 26.8304 5.08609 27.8526 1.45898 27.7083C14.584 35 30.6257 27.7083 30.6257 10.9375C30.6243 10.5313 30.5853 10.1261 30.509 9.7271C31.9974 8.25928 33.0477 6.40606 33.5423 4.37502Z" stroke="#1E1E1E" stroke-width="4" stroke-linecap="round" stroke-linejoin="round"/>
</g>
<defs>
<clipPath id="clip0_182_641">
<rect width="35" height="35" fill="white"/>
</clipPath>
</defs>
</svg>
