<svg width="40" height="31" viewBox="0 0 40 31" fill="none" xmlns="http://www.w3.org/2000/svg">
<path d="M37.567 6.69996C37.369 5.90898 36.9658 5.18425 36.3981 4.59897C35.8303 4.01369 35.1182 3.5886 34.3336 3.36663C31.467 2.66663 20.0003 2.66663 20.0003 2.66663C20.0003 2.66663 8.53364 2.66663 5.66697 3.43329C4.88238 3.65527 4.17026 4.08036 3.60255 4.66564C3.03483 5.25091 2.63162 5.97564 2.43364 6.76663C1.90899 9.67589 1.65236 12.6271 1.66697 15.5833C1.64827 18.5617 1.90491 21.5355 2.43364 24.4666C2.6519 25.233 3.06415 25.9302 3.63054 26.4908C4.19694 27.0513 4.89834 27.4563 5.66697 27.6666C8.53364 28.4333 20.0003 28.4333 20.0003 28.4333C20.0003 28.4333 31.467 28.4333 34.3336 27.6666C35.1182 27.4447 35.8303 27.0196 36.3981 26.4343C36.9658 25.849 37.369 25.1243 37.567 24.3333C38.0876 21.4459 38.3442 18.5172 38.3336 15.5833C38.3523 12.6049 38.0957 9.63112 37.567 6.69996Z" stroke="#1E1E1E" stroke-width="4" stroke-linecap="round" stroke-linejoin="round"/>
<path d="M16.2503 21.0333L25.8336 15.5833L16.2503 10.1333V21.0333Z" stroke="#1E1E1E" stroke-width="4" stroke-linecap="round" stroke-linejoin="round"/>
</svg>
